<svg width="49" height="46" viewBox="0 0 49 46" fill="none" xmlns="http://www.w3.org/2000/svg">
<g clip-path="url(#clip0_417_6191)">
<path d="M26.7382 0.516835C23.0362 1.17003 19.3342 1.81782 15.6377 2.47101C10.8371 3.31314 6.03656 4.17147 1.23601 4.9974C0.703227 5.08917 0.5 5.25112 0.5 5.80714C0.516478 17.2731 0.516478 28.7444 0.5 40.2103C0.5 40.7771 0.719705 40.9391 1.23601 41.0255C4.53158 41.5815 7.82715 42.1591 11.1172 42.7367C16.2199 43.6274 21.317 44.5289 26.4197 45.4197C27.315 45.5762 27.315 45.56 27.315 44.6801V1.54791C27.315 1.35357 27.3095 1.15923 27.315 0.964892C27.3369 0.543827 27.1227 0.452056 26.7382 0.516835ZM18.1423 15.7292C16.5384 15.7184 14.9346 15.7562 13.3363 15.713C12.6771 15.6914 12.4355 15.8695 12.4849 16.5389C12.5398 17.4188 12.5343 18.3095 12.4849 19.1895C12.4464 19.7671 12.754 19.9074 13.2209 19.9182C14.4073 19.9398 15.5882 19.9398 16.7746 19.9614C17.7688 19.9776 17.7688 19.983 17.7688 20.9277C17.7688 21.7266 17.7468 22.5256 17.7743 23.3191C17.7963 23.8644 17.6205 23.9939 17.0493 23.9669C15.5608 23.9076 14.0723 23.9507 12.4959 23.9507C12.4959 25.1492 12.5069 26.3314 12.4904 27.5136C12.4849 28.021 12.8199 28.048 13.188 28.075C14.8248 28.1992 16.4561 28.3449 18.0984 28.4529C18.4828 28.4799 18.6586 28.604 18.6531 28.9819C18.6476 30.04 18.6696 31.098 18.6311 32.1507C18.6256 32.3181 18.351 32.6312 18.2302 32.615C15.0774 32.2803 11.9301 31.9024 8.77738 31.5677C8.29403 31.5137 8.21164 31.2978 8.21164 30.9037C8.21713 24.9548 8.21713 19.0059 8.21164 13.057C8.21164 12.6036 8.35445 12.4362 8.84878 12.4038C11.3864 12.2635 13.9185 12.0745 16.4506 11.9018C17.0877 11.8586 17.7194 11.8208 18.351 11.7722C18.6861 11.7506 18.8289 11.8802 18.8234 12.2203C18.8124 13.1866 18.7959 14.1583 18.8234 15.1246C18.8453 15.6536 18.5652 15.7292 18.1368 15.7292H18.1423Z" fill="#241F61"/>
<path d="M48.4889 11.5936C48.4669 10.4708 47.698 9.57467 46.594 9.56927C41.1727 9.53688 35.746 9.54768 30.3248 9.56927C30.182 9.56927 29.9184 9.82839 29.9129 9.97414C29.8744 10.7677 29.8744 11.5666 29.9129 12.3656C29.9129 12.5167 30.182 12.8028 30.2974 12.7866C31.0334 12.7003 31.4893 13.0889 31.9506 13.5478C32.423 14.0282 32.9613 14.4493 33.4172 14.9406C33.5874 15.1295 33.7742 15.529 33.6863 15.6801C33.3952 16.166 32.9832 16.587 32.5988 17.0081C32.5768 17.0297 32.3406 16.8893 32.2308 16.7922C31.9506 16.5546 31.7254 16.193 31.4014 16.0688C31.0004 15.9122 30.5226 15.9014 30.0831 15.9338C30.0008 15.9392 29.9074 16.4467 29.9019 16.7274C29.8854 18.1903 29.8689 19.6586 29.9129 21.1216C29.9129 21.4455 30.0886 21.8287 30.3138 22.0663C31.0169 22.8058 31.7859 23.486 32.5164 24.204C32.7526 24.4361 33.2304 24.6143 32.8899 25.0785C32.5548 25.5428 32.1868 25.2459 31.8518 25.0677C31.2201 24.7384 30.5994 24.3875 29.8909 24.0043C29.8909 26.034 29.8909 27.9882 29.8964 29.9424C29.8964 30.1205 29.9788 30.2986 30.0172 30.4822C30.2424 30.4228 30.4786 30.4012 30.6818 30.2986C30.8466 30.2123 30.9729 30.0449 31.1103 29.9046C32.7141 28.3121 34.3125 26.7088 35.9328 25.1271C36.0921 24.9759 36.3997 24.9651 36.6413 24.8896C36.6798 25.1541 36.8391 25.4834 36.7347 25.6831C35.3615 28.3769 33.549 30.7791 31.4728 32.987C31.2256 33.2569 30.7697 33.4134 30.3852 33.462C29.9678 33.516 29.8799 33.6726 29.8909 34.0342C29.9074 34.6173 29.8909 35.2003 29.8909 35.7833C29.8909 36.3591 30.1967 36.647 30.8082 36.647H46.0227C47.7859 36.647 48.4944 35.9506 48.4944 34.2232V14.5681C48.4944 13.5748 48.5109 12.5815 48.4889 11.5936ZM33.5929 21.046C33.3677 21.2673 33.17 21.683 32.7361 21.4023C32.2912 21.1162 32.5274 20.7707 32.6976 20.4468C34.0488 17.888 35.8174 15.6153 37.7179 13.4344C38.1079 12.9918 38.5967 12.7704 39.2284 12.8028C40.0193 12.846 40.8102 12.8136 41.6012 12.8136C42.4525 12.8136 43.3094 12.8082 44.1662 12.8136C44.9572 12.8136 45.2263 13.0512 45.2538 13.8501C45.2922 14.865 45.2812 15.8745 45.2702 16.8893C45.2263 20.2686 45.6382 19.1944 43.3368 21.6128C43.0897 21.8773 42.6448 22.2444 42.4251 22.1742C41.9088 22.0069 41.4584 21.6128 41.0189 21.2727C40.9585 21.2241 41.0189 20.8625 41.1288 20.7869C42.1999 20.0473 42.2658 18.9839 42.1779 17.8502C42.1504 17.5317 42.1724 17.2024 42.1724 16.8839C42.1724 15.8529 42.1559 15.9554 41.1618 15.8313C39.4535 15.6153 38.2122 16.1876 37.1192 17.4723C36.0426 18.7463 34.7848 19.8692 33.5929 21.046ZM45.2647 32.1772C45.2647 33.2893 45.0505 33.4836 43.9136 33.4836H40.8871C37.8662 33.4836 37.8442 33.4836 35.8339 31.2649C35.6911 31.103 35.6362 30.6657 35.757 30.493C36.916 28.7709 36.5809 29.0408 37.8332 30.1259C38.0749 30.331 38.4429 30.493 38.7615 30.5092C39.7007 30.5632 40.6454 30.5146 41.5902 30.5362C42.0076 30.5416 42.1889 30.4012 42.1779 29.9747C42.1559 29.219 42.2218 28.4578 42.1449 27.7129C42.112 27.3674 41.8868 26.9895 41.6286 26.7358C40.1182 25.2297 38.5747 23.7613 37.0368 22.2822C36.9434 22.1904 36.8446 22.1095 36.7567 22.0123C36.5534 21.7802 36.1964 21.5966 36.493 21.2079C36.7896 20.8139 37.1082 21.0244 37.4213 21.1864C37.8442 21.4131 38.2946 21.6074 38.6791 21.8827C40.6015 23.2377 42.5074 24.6143 44.4134 25.9962C45.067 26.4659 45.2977 27.1191 45.2812 27.9126C45.2483 29.3323 45.2757 30.7575 45.2647 32.1772Z" fill="#241F61"/>
</g>
<defs>
<clipPath id="clip0_417_6191">
<rect width="48" height="45" fill="white" transform="translate(0.5 0.5)"/>
</clipPath>
</defs>
</svg>
