<svg width="49" height="36" viewBox="0 0 49 36" fill="none" xmlns="http://www.w3.org/2000/svg">
<g clip-path="url(#clip0_417_6209)">
<path d="M48.9999 32.5858C49.0004 33.4291 48.7686 34.1828 48.2099 34.8279C47.5333 35.6091 46.657 35.9909 45.6193 35.9944C43.1122 36.0025 40.6048 35.9973 38.0976 35.9965C37.868 35.9963 37.8678 35.9922 37.8633 35.7762C37.8622 35.7131 37.8633 35.6502 37.8633 35.5873C37.8633 29.669 37.8633 23.7504 37.8628 17.8321C37.8628 17.7155 37.8567 17.5986 37.8534 17.482C37.3493 17.8113 36.8763 18.1828 36.3918 18.5383C32.5048 21.3908 28.6196 24.246 24.7337 27.1004C24.7043 27.122 24.6726 27.1412 24.6467 27.1663C24.5516 27.2578 24.47 27.2486 24.3636 27.1679C23.9645 26.8651 23.5571 26.5724 23.153 26.2758C19.2305 23.3944 15.3081 20.5127 11.3853 17.6316C11.3123 17.5778 11.2351 17.529 11.1598 17.4777C11.1179 17.5913 11.1375 17.7096 11.1375 17.8254C11.1364 23.762 11.1367 29.6987 11.1361 35.6353C11.1359 36.04 11.1794 35.999 10.7709 35.999C8.33712 35.9998 5.90331 36.0006 3.4695 35.999C2.49846 35.9981 1.65007 35.6918 0.963205 35.005C0.320988 34.3628 0.0249624 33.5802 0.00373896 32.69C0.00208519 32.6271 0.00318771 32.5642 0.00318771 32.501C0.00318771 24.8823 0.00318771 17.2636 0.00429022 9.64493C0.00429022 9.52912 -0.0152795 9.41088 0.0268918 9.29724C-0.00370303 9.20977 0.00704652 9.11907 0.00704652 9.02945C0.00649526 7.67108 0.00153393 6.31244 0.00814903 4.95408C0.0147641 3.56628 0.494083 2.36151 1.52576 1.39808C2.62029 0.37579 3.93807 -0.087707 5.44742 0.0170321C6.32585 0.0777699 7.1384 0.362563 7.85063 0.871681C8.94074 1.65129 10.0146 2.45303 11.0948 3.24559C11.1088 3.25584 11.1174 3.27312 11.1287 3.28716C11.1717 3.29499 11.205 3.31604 11.2249 3.35545C11.839 3.76604 12.4214 4.21847 13.0162 4.65471C16.7716 7.40977 20.5246 10.1684 24.2784 12.9259C24.3225 12.9582 24.3685 12.9882 24.4102 13.0236C24.4777 13.0805 24.5392 13.0776 24.605 13.0203C24.6461 12.9844 24.6932 12.9558 24.7373 12.9234C29.0275 9.77207 33.3171 6.62045 37.6076 3.46964C37.6878 3.41106 37.7603 3.3398 37.8584 3.30713C38.1563 3.03881 38.4954 2.82258 38.8168 2.58395C39.5193 2.06241 40.2269 1.54655 40.9311 1.0269C41.914 0.301555 43.0157 -0.0609823 44.2494 0.0083938C46.498 0.134999 48.4412 1.71688 48.8894 3.88374C48.9552 4.20174 48.9971 4.52189 48.9968 4.84718C48.996 6.26871 48.9968 7.69052 48.9963 9.11205C48.9963 9.17468 48.9875 9.23731 48.9828 9.29994C48.9875 9.39847 48.9963 9.497 48.9963 9.5958C48.9971 17.259 48.9949 24.9223 48.9999 32.5858Z" fill="#FDFDFD"/>
<path d="M37.9488 16.9651C37.9488 17.0914 37.9588 17.2194 37.9306 17.3441C37.9273 17.3608 37.9229 17.3776 37.9177 17.394C37.9149 17.4013 37.9119 17.4084 37.908 17.4151C37.8951 17.441 37.8769 17.4629 37.8535 17.4815C37.3493 17.8108 36.8764 18.1823 36.3918 18.5378C32.5049 21.3903 28.6196 24.2455 24.7338 27.1C24.7043 27.1215 24.6726 27.1407 24.6467 27.1658C24.5516 27.2573 24.47 27.2482 24.3636 27.1674C23.9645 26.8646 23.5571 26.5719 23.153 26.2753C19.2306 23.3939 15.3081 20.5122 11.3853 17.6311C11.3123 17.5773 11.2351 17.5285 11.1599 17.4772C11.1527 17.468 11.1461 17.4588 11.1406 17.4488C11.1279 17.4275 11.1185 17.4048 11.1127 17.3803C11.1122 17.3765 11.1114 17.3724 11.1111 17.3687C11.1108 17.3684 11.1108 17.3681 11.1108 17.3679C11.1091 17.3579 11.1078 17.3479 11.1067 17.3379C11.0978 17.2626 11.1003 17.1867 11.1003 17.1111C11.0998 12.6584 11.099 8.20562 11.1039 3.75313C11.1042 3.64974 11.0598 3.5226 11.126 3.43001C11.1334 3.41921 11.1428 3.40895 11.1538 3.39923C11.172 3.3825 11.1954 3.36765 11.2249 3.35496C11.839 3.76555 12.4214 4.21798 13.0162 4.65421C16.7717 7.40928 20.5246 10.1679 24.2784 12.9254C24.3225 12.9578 24.3686 12.9877 24.4102 13.0231C24.4777 13.08 24.5392 13.0771 24.6051 13.0198C24.6461 12.9839 24.6933 12.9553 24.7374 12.9229C29.0275 9.77158 33.3172 6.61996 37.6076 3.46915C37.6878 3.41057 37.7603 3.3393 37.8584 3.30664C37.9938 3.46159 37.9472 3.64947 37.9472 3.8244C37.9499 8.20454 37.9497 12.585 37.9488 16.9651Z" fill="#241F61"/>
<path d="M11.1598 17.4779C11.1179 17.5915 11.1375 17.7098 11.1375 17.8256C11.1364 23.7622 11.1367 29.6989 11.1361 35.6355C11.1359 36.0402 11.1794 35.9991 10.7709 35.9991C8.33712 35.9999 5.90331 36.0008 3.4695 35.9991C2.49846 35.9983 1.65007 35.6919 0.963205 35.0052C0.320988 34.363 0.0249624 33.5804 0.00373896 32.6901C0.00208519 32.6272 0.00318771 32.5643 0.00318771 32.5012C0.00318771 24.8825 0.00318771 17.2638 0.00429022 9.64511C0.00429022 9.52931 -0.0152795 9.41107 0.0268918 9.29742C0.186481 9.2761 0.277163 9.39595 0.383005 9.4737C3.64866 11.8714 6.91487 14.2687 10.1794 16.6683C10.4801 16.8894 10.7858 17.1037 11.0788 17.3348C11.0854 17.3413 11.0918 17.348 11.0981 17.3548C11.1022 17.3594 11.1064 17.3639 11.1105 17.3688C11.1105 17.3691 11.1108 17.3691 11.111 17.3693C11.1334 17.3963 11.1524 17.4258 11.1676 17.4576C11.1676 17.4576 11.1601 17.4779 11.1598 17.4779Z" fill="#241F61"/>
<path d="M49 32.5862C49.0005 33.4295 48.7687 34.1832 48.21 34.8284C47.5333 35.6096 46.6571 35.9913 45.6194 35.9948C43.1122 36.0029 40.6048 35.9978 38.0977 35.997C37.8681 35.9967 37.8678 35.9926 37.8634 35.7767C37.8623 35.7135 37.8634 35.6506 37.8634 35.5877C37.8634 29.6694 37.8634 23.7509 37.8629 17.8326C37.8629 17.7159 37.8568 17.5991 37.8535 17.4824C37.8596 17.4687 37.8645 17.4549 37.8684 17.4403C37.8841 17.4036 37.9056 17.3726 37.9307 17.345C37.9847 17.2865 38.0547 17.2441 38.1189 17.1968C41.631 14.6197 45.1392 12.0379 48.6524 9.46234C48.75 9.39108 48.8327 9.27527 48.9829 9.30037C48.9876 9.3989 48.9964 9.49743 48.9964 9.59623C48.9972 17.2595 48.995 24.9227 49 32.5862Z" fill="#241F61"/>
<path d="M49.1385 4.84745C49.1376 6.26898 49.1385 7.69079 49.1379 9.11232C49.1379 9.17495 49.1291 9.23758 49.1244 9.30021C47.3386 10.6097 45.5522 11.9181 43.7675 13.2285C41.909 14.5928 40.0521 15.9592 38.194 17.3238C38.1483 17.3576 38.0984 17.3864 38.0496 17.4159C38.0364 17.424 38.0232 17.4321 38.0099 17.4402H38.0096C38.0074 17.3233 38.0033 17.2064 38.0033 17.0895C38.0033 12.6124 38.0033 8.13512 38.0028 3.65779C38.0028 3.54091 38.0011 3.42402 38 3.30713C38.298 3.03881 38.637 2.82258 38.9584 2.58395C39.6609 2.06241 40.3685 1.54655 41.0727 1.0269C42.0556 0.301555 43.1573 -0.0609823 44.391 0.0083938C46.6396 0.134998 48.5828 1.71688 49.031 3.88374C49.0968 4.20174 49.1387 4.52189 49.1385 4.84718V4.84745Z" fill="#4C478E"/>
<path d="M11.1109 17.3678H11.1106C11.0999 17.375 11.0875 17.3815 11.0732 17.3875C10.3882 16.8894 9.70135 16.3938 9.01861 15.8928C6.06579 13.7256 3.11436 11.5566 0.16209 9.3887C0.118265 9.3563 0.0719589 9.32715 0.0270313 9.29664C-0.00356356 9.20918 0.00718598 9.11848 0.00718598 9.02886C0.00663473 7.67049 0.0016734 6.31185 0.0082885 4.95348C0.0149036 3.56569 0.494223 2.36092 1.5259 1.39748C2.62043 0.375198 3.93821 -0.0882992 5.44756 0.0164399C6.32599 0.0771777 7.13854 0.361971 7.85077 0.871089C8.94088 1.65069 10.0147 2.45243 11.0949 3.24499C11.109 3.25525 11.1175 3.27253 11.1288 3.28657C11.1465 3.32328 11.1525 3.36107 11.1539 3.39913C11.1556 3.45015 11.1487 3.50171 11.1487 3.55219C11.1501 8.06353 11.1506 12.5746 11.1451 17.0857C11.1451 17.1747 11.2201 17.296 11.1109 17.3678Z" fill="#4C478E"/>
<path d="M11.1802 3.66611C11.178 8.1375 11.1783 12.6089 11.1777 17.08C11.1777 17.2058 11.1714 17.3316 11.1678 17.4574C11.1584 17.4552 11.1493 17.4525 11.1408 17.4493C11.1113 17.438 11.0876 17.4193 11.0732 17.388C11.0832 17.3772 11.0914 17.3659 11.0983 17.3545C11.1014 17.3491 11.1044 17.3437 11.1069 17.3383C11.1518 17.2479 11.1212 17.1459 11.1212 17.0517C11.1234 12.5892 11.1231 8.12697 11.1234 3.66476C11.1234 3.58648 11.1248 3.50847 11.1262 3.43045C11.1273 3.38267 11.1281 3.33489 11.1289 3.28711C11.1719 3.29494 11.2053 3.31599 11.2251 3.35541C11.1413 3.44908 11.1802 3.56245 11.1802 3.66611Z" fill="#DE4840"/>
</g>
<defs>
<clipPath id="clip0_417_6209">
<rect width="49" height="36" fill="white"/>
</clipPath>
</defs>
</svg>
