<svg width="45" height="54" viewBox="0 0 45 54" fill="none" xmlns="http://www.w3.org/2000/svg">
<g clip-path="url(#clip0_417_6197)">
<path d="M43.0917 18.2912C34.4114 24.1757 36.0079 35.7917 44.5047 39.6164C44.3042 40.1857 44.1207 40.7759 43.8899 41.3471C42.2689 45.3666 40.035 48.9984 36.895 52.0116C34.803 54.0185 32.3156 54.3685 29.6183 53.3981C29.0849 53.2071 28.5552 53.0028 28.0389 52.772C25.0805 51.4536 22.1316 51.4801 19.1448 52.7096C17.9872 53.1862 16.788 53.6383 15.5642 53.8672C12.9822 54.3514 11.0585 53.0236 9.42612 51.2399C5.11342 46.5261 2.34799 41.0123 1.10336 34.7475C0.233251 30.3762 0.144349 26.0181 1.88456 21.8246C4.07118 16.5585 7.99801 13.5302 13.7577 13.1386C14.7981 13.0686 15.8876 13.3316 16.9147 13.6001C18.0667 13.9009 19.2035 14.317 20.293 14.8013C22.0162 15.5673 23.6429 15.4747 25.4077 14.8315C27.4922 14.0711 29.6523 13.2218 31.8257 13.0611C36.4108 12.7225 40.2449 14.4532 43.0917 18.2912Z" fill="#241F61"/>
<path d="M33.1817 0.0332031C34.4283 5.71349 27.8703 13.2721 22.5418 12.2979C21.6036 7.15673 26.7429 0.220465 33.1817 0.0332031Z" fill="#241F61"/>
</g>
<defs>
<clipPath id="clip0_417_6197">
<rect width="44.0085" height="53.9334" fill="white" transform="translate(0.49585 0.0332031)"/>
</clipPath>
</defs>
</svg>
