<svg width="32" height="34" viewBox="0 0 32 34" fill="none" xmlns="http://www.w3.org/2000/svg">
<g clip-path="url(#clip0_1376_16982)">
<path d="M31.3471 1.3684C31.3471 1.04899 31.2711 0.729572 31.2305 0.410156H0.764281C0.71865 0.683941 0.655274 0.88928 0.655274 1.09208C0.647668 7.21169 0.662879 13.3313 0.629923 19.4534C0.624853 20.2824 1.09891 20.3863 1.70732 20.5359C11.2721 22.8783 20.8292 22.8428 30.3939 20.5258C31.1697 20.3382 31.3725 19.9782 31.3699 19.2202C31.342 13.2705 31.3547 7.31816 31.3471 1.3684ZM28.5586 2.55988C24.2059 5.61968 20.1422 8.47414 15.9847 11.3971C11.8881 8.52231 7.79397 5.64503 3.3982 2.55988H28.5586ZM28.2594 18.7614C20.1346 20.546 12.0199 20.5283 3.88746 18.8171C3.03568 18.6372 2.7112 18.3532 2.72387 17.4279C2.77964 13.2933 2.74669 9.15861 2.74669 4.86931C3.1092 5.05437 3.36524 5.15323 3.58072 5.30533C7.37822 7.97474 11.1909 10.6239 14.9504 13.3465C15.7515 13.9245 16.2788 13.8611 17.0444 13.3136C20.9813 10.4819 24.9613 7.70603 29.1264 4.7679C29.167 5.26731 29.2075 5.54616 29.2075 5.82756C29.2126 9.71378 29.1999 13.5975 29.2227 17.4812C29.2278 18.2062 29.1036 18.5763 28.2594 18.7614Z" fill="black"/>
<path d="M13.3863 24.1556V33.5176H11.992V27.7123C11.8957 27.6844 11.7994 27.6565 11.703 27.6287C11.2391 28.6351 10.8107 29.6592 10.291 30.6352C10.0628 31.0662 9.6547 31.4008 9.32768 31.7811C8.94235 31.4008 8.45816 31.0789 8.19451 30.6251C7.62666 29.6516 7.17542 28.6122 6.67602 27.5982C6.57462 27.6261 6.47068 27.6515 6.36928 27.6794V33.515H5.12964V24.1404C6.01437 23.8109 6.52392 24.077 6.89403 24.9491C7.58103 26.5741 8.36943 28.1559 9.23642 30.0192C10.1034 28.1914 10.9197 26.6096 11.6092 24.9745C11.9768 24.0999 12.4509 23.7906 13.3863 24.1556Z" fill="black"/>
<path d="M19.5339 24.5266C19.4477 24.301 19.0522 24.0551 18.8088 24.0627C18.5655 24.0703 18.2308 24.3339 18.1117 24.5748C17.8126 25.173 17.6047 25.8169 17.3765 26.4482C16.5374 28.7677 15.7034 31.0873 14.8567 33.4449C15.7972 33.7542 16.3777 33.6122 16.5324 32.6616C16.6718 31.7971 17.156 31.4675 18.028 31.5791C18.5655 31.6475 19.1232 31.6323 19.6657 31.5816C20.4617 31.5056 20.9662 31.754 21.0878 32.5982C21.2222 33.5159 21.7444 33.7947 22.8066 33.4322C21.7064 30.418 20.6417 27.4647 19.5339 24.5266ZM17.341 30.3344C17.8176 28.9883 18.2613 27.736 18.7074 26.4811C18.8038 26.4786 18.8976 26.4786 18.9939 26.4786C19.4274 27.736 19.8583 28.9959 20.3172 30.3344H17.341Z" fill="black"/>
<path d="M28.2695 24.0575C27.0197 23.9662 25.7598 24.0397 24.4441 24.0397V33.5107H25.6609C25.6837 33.067 25.7116 32.6944 25.7167 32.3242C25.7319 30.6765 26.5465 29.7985 28.1605 29.6903C29.8944 29.5737 30.9566 28.5369 30.9921 26.9271C31.0276 25.3174 30.0136 24.1842 28.2695 24.0575ZM29.2658 27.7814C28.4596 29.0895 27.0831 28.4532 25.8003 28.585V25.0132C27.0831 25.3655 28.2416 25.5785 29.2784 26.0525C29.5066 26.159 29.537 27.3378 29.2658 27.7814Z" fill="black"/>
<path d="M2.31063 24.0957H1.13184V33.5337H2.31063V24.0957Z" fill="black"/>
</g>
<defs>
<clipPath id="clip0_1376_16982">
<rect width="30.74" height="33.1812" fill="white" transform="translate(0.629883 0.410156)"/>
</clipPath>
</defs>
</svg>
