<svg width="40" height="48" viewBox="0 0 40 48" fill="none" xmlns="http://www.w3.org/2000/svg">
<g clip-path="url(#clip0_428_6598)">
<path d="M9.72067 37.7781C8.33738 37.7781 7.20972 38.8386 7.20972 40.1546C7.20972 41.0491 7.73328 41.8156 8.51229 42.2246L18.2201 47.3477C18.9902 47.7751 19.8593 47.9995 20.7434 47.9991C21.3344 47.9991 21.8985 47.8972 22.4221 47.7182L25.7384 46.8112V37.7656C25.752 37.7781 9.73354 37.7781 9.72028 37.7781H9.72087H9.72067Z" fill="#241F61"/>
<path d="M9.72067 37.7781C8.33738 37.7781 7.20972 38.8386 7.20972 40.1546C7.20972 41.0491 7.73328 41.8156 8.51229 42.2246L18.2201 47.3477C18.9902 47.7751 19.8593 47.9995 20.7434 47.9991C21.3344 47.9991 21.8985 47.8972 22.4221 47.7182L25.7384 46.8112V37.7656C25.752 37.7781 9.73354 37.7781 9.72028 37.7781H9.72087H9.72067Z" fill="#241F61"/>
<path d="M22.2086 0.191663C21.75 0.0626354 21.2754 -0.00187843 20.7984 4.16255e-05C20.0064 4.16255e-05 19.2141 0.153454 18.5022 0.510968C18.3549 0.574906 2.71202 8.94289 2.71202 8.94289C2.49713 9.04542 2.2957 9.17291 2.10772 9.30097C2.0814 9.31346 2.06756 9.32651 2.04065 9.33957C1.91975 9.42866 1.81211 9.51813 1.6918 9.60761C1.63798 9.6462 1.58416 9.69766 1.54399 9.73567C1.47691 9.79923 1.40945 9.86317 1.35602 9.9271C1.16804 10.1185 0.845714 10.5271 0.845714 10.5271C0.292902 11.3015 -0.0027112 12.2258 1.87388e-05 13.1726V35.4026C1.87388e-05 36.7192 1.12787 37.7796 2.51097 37.7796C2.85982 37.7796 3.18234 37.7157 3.47776 37.5876L7.94881 35.1987C8.75414 34.8156 9.39899 34.1638 9.73478 33.3587C9.81492 33.1926 9.882 32.9887 9.92275 32.7836C9.93601 32.7325 9.94966 32.6686 9.94966 32.6175C9.94966 32.5926 9.96292 32.554 9.96292 32.5284C9.97657 32.4384 9.98983 32.3364 9.98983 32.2475C9.98983 32.1705 10.0035 32.1066 10.0035 32.03V16.5066C10.0035 15.4716 10.4732 14.5391 11.2121 13.8876C11.5609 13.5812 12.0174 13.3125 12.5546 13.1342C13.0914 12.9422 25.7936 8.57308 25.7936 8.57308V1.20104L22.2086 0.191471V0.191663Z" fill="#241F61"/>
<path d="M22.2086 0.191663C21.75 0.0626354 21.2754 -0.00187843 20.7984 4.16255e-05C20.0064 4.16255e-05 19.2141 0.153454 18.5022 0.510968C18.3549 0.574906 2.71202 8.94289 2.71202 8.94289C2.49713 9.04542 2.2957 9.17291 2.10772 9.30097C2.0814 9.31346 2.06756 9.32651 2.04065 9.33957C1.91975 9.42866 1.81211 9.51813 1.6918 9.60761C1.63798 9.6462 1.58416 9.69766 1.54399 9.73567C1.47691 9.79923 1.40945 9.86317 1.35602 9.9271C1.16804 10.1185 0.845714 10.5271 0.845714 10.5271C0.292902 11.3015 -0.0027112 12.2258 1.87388e-05 13.1726V35.4026C1.87388e-05 36.7192 1.12787 37.7796 2.51097 37.7796C2.85982 37.7796 3.18234 37.7157 3.47776 37.5876L7.94881 35.1987C8.75414 34.8156 9.39899 34.1638 9.73478 33.3587C9.81492 33.1926 9.882 32.9887 9.92275 32.7836C9.93601 32.7325 9.94966 32.6686 9.94966 32.6175C9.94966 32.5926 9.96292 32.554 9.96292 32.5284C9.97657 32.4384 9.98983 32.3364 9.98983 32.2475C9.98983 32.1705 10.0035 32.1066 10.0035 32.03V16.5066C10.0035 15.4716 10.4732 14.5391 11.2121 13.8876C11.5609 13.5812 12.0174 13.3125 12.5546 13.1342C13.0914 12.9422 25.7936 8.57308 25.7936 8.57308V1.20104L22.2086 0.191471V0.191663Z" fill="#241F61"/>
<path d="M36.5087 4.17542L22.4238 0.253906C24.4647 1.00791 25.7397 2.70697 25.7397 4.77698C25.7397 4.77698 25.7271 42.377 25.7397 43.284C25.7534 45.3281 24.3839 47.0785 22.4238 47.7301C22.8534 47.6151 36.5087 43.8716 36.5087 43.8716C38.5359 43.2585 39.9997 41.4696 39.9997 39.3366V8.71059C40.013 6.59066 38.5357 4.7885 36.5087 4.17562V4.17542Z" fill="#241F61"/>
<g style="mix-blend-mode:color">
<path d="M9.72067 37.7781C8.33738 37.7781 7.20972 38.8386 7.20972 40.1546C7.20972 41.0491 7.73328 41.8156 8.51229 42.2246L18.2201 47.3477C18.9902 47.7751 19.8593 47.9995 20.7434 47.9991C21.3344 47.9991 21.8985 47.8972 22.4221 47.7182L25.7384 46.8112V37.7656C25.752 37.7781 9.73354 37.7781 9.72028 37.7781H9.72087H9.72067Z" fill="#241F61"/>
<path d="M9.72067 37.7781C8.33738 37.7781 7.20972 38.8386 7.20972 40.1546C7.20972 41.0491 7.73328 41.8156 8.51229 42.2246L18.2201 47.3477C18.9902 47.7751 19.8593 47.9995 20.7434 47.9991C21.3344 47.9991 21.8985 47.8972 22.4221 47.7182L25.7384 46.8112V37.7656C25.752 37.7781 9.73354 37.7781 9.72028 37.7781H9.72087H9.72067Z" fill="#241F61"/>
<path d="M22.2086 0.191663C21.75 0.0626354 21.2754 -0.00187843 20.7984 4.16255e-05C20.0064 4.16255e-05 19.2141 0.153454 18.5022 0.510968C18.3549 0.574906 2.71202 8.94289 2.71202 8.94289C2.49713 9.04542 2.2957 9.17291 2.10772 9.30097C2.0814 9.31346 2.06756 9.32651 2.04065 9.33957C1.91975 9.42866 1.81211 9.51813 1.6918 9.60761C1.63798 9.6462 1.58416 9.69766 1.54399 9.73567C1.47691 9.79923 1.40945 9.86317 1.35602 9.9271C1.16804 10.1185 0.845714 10.5271 0.845714 10.5271C0.292902 11.3015 -0.0027112 12.2258 1.87388e-05 13.1726V35.4026C1.87388e-05 36.7192 1.12787 37.7796 2.51097 37.7796C2.85982 37.7796 3.18234 37.7157 3.47776 37.5876L7.94881 35.1987C8.75414 34.8156 9.39899 34.1638 9.73478 33.3587C9.81492 33.1926 9.882 32.9887 9.92275 32.7836C9.93601 32.7325 9.94966 32.6686 9.94966 32.6175C9.94966 32.5926 9.96292 32.554 9.96292 32.5284C9.97657 32.4384 9.98983 32.3364 9.98983 32.2475C9.98983 32.1705 10.0035 32.1066 10.0035 32.03V16.5066C10.0035 15.4716 10.4732 14.5391 11.2121 13.8876C11.5609 13.5812 12.0174 13.3125 12.5546 13.1342C13.0914 12.9422 25.7936 8.57308 25.7936 8.57308V1.20104L22.2086 0.191471V0.191663Z" fill="#241F61"/>
<path d="M22.2086 0.191663C21.75 0.0626354 21.2754 -0.00187843 20.7984 4.16255e-05C20.0064 4.16255e-05 19.2141 0.153454 18.5022 0.510968C18.3549 0.574906 2.71202 8.94289 2.71202 8.94289C2.49713 9.04542 2.2957 9.17291 2.10772 9.30097C2.0814 9.31346 2.06756 9.32651 2.04065 9.33957C1.91975 9.42866 1.81211 9.51813 1.6918 9.60761C1.63798 9.6462 1.58416 9.69766 1.54399 9.73567C1.47691 9.79923 1.40945 9.86317 1.35602 9.9271C1.16804 10.1185 0.845714 10.5271 0.845714 10.5271C0.292902 11.3015 -0.0027112 12.2258 1.87388e-05 13.1726V35.4026C1.87388e-05 36.7192 1.12787 37.7796 2.51097 37.7796C2.85982 37.7796 3.18234 37.7157 3.47776 37.5876L7.94881 35.1987C8.75414 34.8156 9.39899 34.1638 9.73478 33.3587C9.81492 33.1926 9.882 32.9887 9.92275 32.7836C9.93601 32.7325 9.94966 32.6686 9.94966 32.6175C9.94966 32.5926 9.96292 32.554 9.96292 32.5284C9.97657 32.4384 9.98983 32.3364 9.98983 32.2475C9.98983 32.1705 10.0035 32.1066 10.0035 32.03V16.5066C10.0035 15.4716 10.4732 14.5391 11.2121 13.8876C11.5609 13.5812 12.0174 13.3125 12.5546 13.1342C13.0914 12.9422 25.7936 8.57308 25.7936 8.57308V1.20104L22.2086 0.191471V0.191663Z" fill="#241F61"/>
<path d="M36.5087 4.17542L22.4238 0.253906C24.4647 1.00791 25.7397 2.70697 25.7397 4.77698C25.7397 4.77698 25.7271 42.377 25.7397 43.284C25.7534 45.3281 24.3839 47.0785 22.4238 47.7301C22.8534 47.6151 36.5087 43.8716 36.5087 43.8716C38.5359 43.2585 39.9997 41.4696 39.9997 39.3366V8.71059C40.013 6.59066 38.5357 4.7885 36.5087 4.17562V4.17542Z" fill="#241F61"/>
</g>
</g>
<defs>
<clipPath id="clip0_428_6598">
<rect width="40" height="48" fill="white"/>
</clipPath>
</defs>
</svg>
