<svg width="51" height="50" viewBox="0 0 51 50" fill="none" xmlns="http://www.w3.org/2000/svg">
<g clip-path="url(#clip0_417_6186)">
<path d="M29.9602 49.8169V0.174233C29.9602 0.145634 29.9583 0.117034 29.9602 0.0886791C29.9654 0.00874714 29.9257 -0.00983032 29.8534 0.00434722C29.3354 0.105545 28.8175 0.206744 28.2992 0.306475C27.3065 0.497139 26.3136 0.687069 25.3209 0.877243C24.3645 1.06057 23.408 1.24439 22.4516 1.42748C21.3624 1.63574 20.273 1.84352 19.1841 2.05202C18.1956 2.24146 17.2074 2.43188 16.2189 2.62132C15.1662 2.82323 14.1133 3.02392 13.0607 3.22582C12.1647 3.39742 11.2687 3.56975 10.373 3.74233C9.36866 3.93544 8.36437 4.12928 7.35983 4.32238C6.22701 4.54042 5.09394 4.75895 3.96087 4.97553C2.80733 5.19601 1.65354 5.4143 0.5 5.63356V44.0163C1.10514 44.14 1.71053 44.262 2.31542 44.3874C3.74576 44.6834 5.17584 44.9811 6.60593 45.2781C7.8357 45.5333 9.06572 45.7885 10.2957 46.0437C11.7379 46.3431 13.1803 46.6418 14.6223 46.942C15.8922 47.2062 17.1615 47.4732 18.4312 47.7372C19.8655 48.0351 21.3 48.3302 22.7343 48.6277C23.8842 48.8662 25.0335 49.107 26.1833 49.3466C27.2047 49.5592 28.225 49.7778 29.2488 49.9782C29.4545 50.0185 29.6746 49.9914 29.8877 49.9882C29.9121 49.9877 29.9439 49.9437 29.957 49.9134C29.9689 49.8858 29.9602 49.8494 29.9602 49.8169ZM22.0547 26.2668C21.9409 27.5205 21.6706 28.7378 21.1207 29.8813C20.5617 31.0436 19.7999 32.0448 18.7199 32.784C17.9563 33.3066 17.1092 33.6119 16.1873 33.7183C15.1998 33.8324 14.2308 33.7652 13.2891 33.4325C12.2888 33.0791 11.4698 32.4699 10.7874 31.6726C9.83615 30.5613 9.26307 29.2712 8.97395 27.8527C8.77092 26.8559 8.71985 26.2245 8.72429 25.279C8.71393 23.9262 8.8617 22.66 9.24285 21.4259C9.64545 20.1215 10.2883 18.9531 11.266 17.9807C12.1657 17.0856 13.2452 16.5336 14.51 16.3479C15.7025 16.1726 16.8657 16.2599 17.9793 16.7468C18.9796 17.1843 19.7579 17.8873 20.3932 18.7571C21.1271 19.7617 21.5788 20.8871 21.8363 22.0939C21.9779 22.7583 22.0549 23.4303 22.0895 24.1091C22.126 24.8299 22.1198 25.5493 22.0547 26.2668ZM50.4891 35.3521C50.4889 35.7327 50.3063 36.0749 50.089 36.3858C49.6973 36.9468 49.1395 37.2492 48.4722 37.3585C48.239 37.3966 47.999 37.4086 47.7622 37.4086C42.5266 37.4113 37.291 37.4108 32.0554 37.4108C31.9291 37.4108 31.8659 37.3498 31.8657 37.2279V24.1257C31.9454 24.1763 31.9969 24.2071 32.0465 24.2408C33.0116 24.8976 33.9828 25.5457 34.938 26.2162C35.3012 26.4711 35.7595 26.4039 36.0437 26.2162C39.8058 23.7307 43.5689 21.2467 47.332 18.7627C48.3402 18.0973 49.3497 17.4332 50.3586 16.7685C50.3954 16.7443 50.4329 16.7211 50.4852 16.6876C50.4894 16.7395 50.4943 16.7739 50.4943 16.8081C50.4946 22.9895 50.4968 29.1707 50.4891 35.3521ZM50.4899 12.6228C50.4872 12.6629 50.4341 12.7086 50.3934 12.7358C49.5436 13.3068 48.6925 13.8758 47.8411 14.4447C43.857 17.1069 39.8729 19.7688 35.8893 22.4317C35.7593 22.5185 35.6342 22.6173 35.463 22.5806C35.3813 22.563 35.2918 22.5503 35.223 22.5078C34.1368 21.8346 33.054 21.1562 31.9683 20.4821C31.8923 20.4349 31.8662 20.3821 31.8662 20.2951C31.8682 17.1191 31.8687 13.9433 31.8652 10.7673C31.8652 10.6404 31.915 10.6238 32.0248 10.6238C34.8354 10.6263 37.6462 10.6258 40.4568 10.6258C43.2674 10.6258 45.9058 10.6326 48.6301 10.6194C49.1094 10.6172 49.4992 10.7766 49.8302 11.0887C50.0123 11.2603 50.1601 11.4701 50.3091 11.6732C50.5183 11.9582 50.5109 12.2921 50.4899 12.6228ZM18.841 25.0213C18.8489 26.0089 18.7652 26.9126 18.4917 27.7908C18.2608 28.533 17.9087 29.2064 17.3226 29.739C16.8921 30.1301 16.3842 30.358 15.8029 30.4242C14.5063 30.5723 13.5787 30.0074 12.9065 28.9517C12.4837 28.2878 12.2577 27.553 12.1228 26.7862C11.9839 25.9964 11.9649 25.1993 12.0041 24.4027C12.0574 23.3261 12.2587 22.2807 12.7881 21.3215C13.1209 20.7177 13.5499 20.201 14.1804 19.8788C14.6356 19.6459 15.1216 19.5603 15.6317 19.5823C16.7029 19.6287 17.4375 20.1927 17.9697 21.0673C18.3498 21.6921 18.5578 22.3792 18.6856 23.0917C18.804 23.7537 18.8513 24.4222 18.841 25.0213Z" fill="#241F61"/>
</g>
<defs>
<clipPath id="clip0_417_6186">
<rect width="50" height="50" fill="white" transform="translate(0.5)"/>
</clipPath>
</defs>
</svg>
