<svg width="96" height="88" viewBox="0 0 96 88" fill="none" xmlns="http://www.w3.org/2000/svg">
<rect x="0.5" width="95" height="88" rx="40" fill="white"/>
<g clip-path="url(#clip0_428_6539)">
<path d="M53.2391 31.7518C53.0967 32.124 52.9902 32.426 52.8691 32.7213C48.1238 44.2925 43.3757 55.8651 38.6304 67.4363C38.5545 67.6197 38.5 67.8125 38.4361 67.9999H28.5874C29.5416 65.7091 30.4957 63.417 31.4498 61.1262C31.5536 60.8781 31.6348 60.6139 31.7758 60.39C32.6288 59.0404 32.4465 57.7865 31.8211 56.3303C28.4184 48.4184 25.1249 40.4579 21.7941 32.5136C21.7023 32.2925 21.6211 32.0674 21.5 31.7518H22.2425C25.1023 31.7518 27.962 31.7653 30.8217 31.7384C31.342 31.7343 31.5895 31.8786 31.7852 32.3909C33.5337 36.9927 35.3142 41.5811 37.0867 46.1734C37.1826 46.4215 37.2903 46.6656 37.45 47.0485C37.6017 46.71 37.7135 46.4849 37.8053 46.253C39.6178 41.6269 41.4342 37.0049 43.2254 32.3707C43.409 31.8975 43.6326 31.7343 44.1356 31.7384C47.127 31.764 50.1185 31.7518 53.2391 31.7518Z" fill="#241F61"/>
<path d="M74.4999 20C74.4268 20.2562 74.3762 20.5218 74.2764 20.7658C71.2237 28.2422 68.1604 35.7146 65.117 43.1937C64.9134 43.6953 64.6686 43.9002 64.1083 43.8948C60.9386 43.8652 57.7688 43.8813 54.6003 43.8787C54.3861 43.8787 54.1718 43.8584 53.8711 43.8422C54.3222 42.738 54.7414 41.7079 55.1646 40.6791C57.9085 33.9955 60.6538 27.3119 63.3964 20.6283C63.4789 20.4261 63.5242 20.209 63.588 20L74.4999 20Z" fill="#241F61"/>
<path d="M62.7684 52.5267C62.7524 55.911 59.9898 58.6777 56.6444 58.6589C53.2764 58.6413 50.5577 55.8382 50.5723 52.3986C50.587 49.0063 53.3203 46.2881 56.7056 46.2989C60.1136 46.3096 62.7857 49.0548 62.7684 52.5267Z" fill="#241F61"/>
</g>
<defs>
<clipPath id="clip0_428_6539">
<rect width="53" height="48" fill="white" transform="translate(21.5 20)"/>
</clipPath>
</defs>
</svg>
