<svg width="54" height="48" viewBox="0 0 54 48" fill="none" xmlns="http://www.w3.org/2000/svg">
<g clip-path="url(#clip0_428_6592)">
<path d="M32.2391 11.7518C32.0967 12.124 31.9902 12.426 31.8691 12.7213C27.1238 24.2925 22.3757 35.8651 17.6304 47.4363C17.5545 47.6197 17.5 47.8125 17.4361 47.9999H7.58743C8.54155 45.7091 9.49568 43.417 10.4498 41.1262C10.5536 40.8781 10.6348 40.6139 10.7758 40.39C11.6288 39.0404 11.4465 37.7865 10.8211 36.3303C7.41842 28.4184 4.12489 20.4579 0.79409 12.5136C0.70227 12.2925 0.621096 12.0674 0.5 11.7518H1.24254C4.10226 11.7518 6.96199 11.7653 9.82171 11.7384C10.342 11.7343 10.5895 11.8786 10.7852 12.3909C12.5337 16.9927 14.3142 21.5811 16.0867 26.1734C16.1826 26.4215 16.2903 26.6656 16.45 27.0485C16.6017 26.71 16.7135 26.4849 16.8053 26.253C18.6178 21.6269 20.4342 17.0049 22.2254 12.3707C22.409 11.8975 22.6326 11.7343 23.1356 11.7384C26.127 11.764 29.1185 11.7518 32.2391 11.7518Z" fill="#241F61"/>
<path d="M53.4999 0C53.4268 0.25618 53.3762 0.521798 53.2764 0.765843C50.2237 8.24225 47.1604 15.7146 44.117 23.1937C43.9134 23.6953 43.6686 23.9002 43.1083 23.8948C39.9386 23.8652 36.7688 23.8813 33.6003 23.8787C33.3861 23.8787 33.1718 23.8584 32.8711 23.8422C33.3222 22.738 33.7414 21.7079 34.1646 20.6791C36.9085 13.9955 39.6538 7.31191 42.3964 0.628315C42.4789 0.426067 42.5242 0.208989 42.588 0L53.4999 0Z" fill="#241F61"/>
<path d="M41.7684 32.5267C41.7524 35.911 38.9898 38.6777 35.6444 38.6589C32.2764 38.6413 29.5577 35.8382 29.5723 32.3986C29.587 29.0063 32.3203 26.2881 35.7056 26.2989C39.1136 26.3096 41.7857 29.0548 41.7684 32.5267Z" fill="#241F61"/>
</g>
<defs>
<clipPath id="clip0_428_6592">
<rect width="53" height="48" fill="white" transform="translate(0.5)"/>
</clipPath>
</defs>
</svg>
