<svg width="25" height="24" viewBox="0 0 25 24" fill="none" xmlns="http://www.w3.org/2000/svg">
<path d="M5.1575 7.0175C5.0525 7.0175 5 7.0875 5 7.175V17.3425C5 17.43 5.07 17.5 5.1575 17.5H15.5L19 21V7.1575C19 7.0525 18.93 7 18.8425 7H5.175L5.1575 7.0175Z" fill="white"/>
<path d="M19.3025 8.16557C19.3025 8.16557 22.0483 7.00721 21.3156 5.61657C21.3156 5.61657 20.1459 3.2663 14.3895 3.93034C14.3895 3.93034 17.6643 1.75155 22.7442 4.34291C22.7442 4.34291 25.3726 6.18938 20.958 7.93664C20.958 7.93664 20.2393 8.21459 19.303 8.16553L19.3025 8.16557Z" fill="white"/>
<path d="M5.46773 16.1632C5.46773 16.1632 2.50938 15.8031 2.45375 17.374C2.45375 17.374 2.30017 19.9947 7.62492 22.2805C7.62492 22.2805 3.7003 22.5428 0.580972 17.7688C0.580972 17.7688 -0.781507 14.86 3.91752 15.5387C3.91752 15.5387 4.67929 15.6549 5.46721 16.1629L5.46773 16.1632Z" fill="white"/>
</svg>
