<svg version="1.1" xmlns="http://www.w3.org/2000/svg" xmlns:xlink="http://www.w3.org/1999/xlink" width="32" height="32" viewBox="0,0,255.99544,255.99544"><g fill="#262261" fill-rule="nonzero" stroke="none" stroke-width="1" stroke-linecap="butt" stroke-linejoin="miter" stroke-miterlimit="10" stroke-dasharray="" stroke-dashoffset="0" font-family="none" font-weight="none" font-size="none" text-anchor="none" style="mix-blend-mode: normal"><g transform="translate(-0.00228,-0.00228) scale(8,8)"><g><path d="M4,10h4c1.104,0 2,-0.896 2,-2v-4c0,-1.104 -0.896,-2 -2,-2h-4c-1.104,0 -2,0.896 -2,2v4c0,1.104 0.896,2 2,2zM14,10h4c1.104,0 2,-0.896 2,-2v-4c0,-1.104 -0.896,-2 -2,-2h-4c-1.104,0 -2,0.896 -2,2v4c0,1.104 0.896,2 2,2zM24,10h4c1.104,0 2,-0.896 2,-2v-4c0,-1.104 -0.896,-2 -2,-2h-4c-1.104,0 -2,0.896 -2,2v4c0,1.104 0.896,2 2,2zM2,18c0,1.104 0.896,2 2,2h4c1.104,0 2,-0.896 2,-2v-4c0,-1.104 -0.896,-2 -2,-2h-4c-1.104,0 -2,0.896 -2,2zM12,18c0,1.104 0.896,2 2,2h4c1.104,0 2,-0.896 2,-2v-4c0,-1.104 -0.896,-2 -2,-2h-4c-1.104,0 -2,0.896 -2,2zM22,18c0,1.104 0.896,2 2,2h4c1.104,0 2,-0.896 2,-2v-4c0,-1.104 -0.896,-2 -2,-2h-4c-1.104,0 -2,0.896 -2,2zM2,28c0,1.104 0.896,2 2,2h4c1.104,0 2,-0.896 2,-2v-4c0,-1.104 -0.896,-2 -2,-2h-4c-1.104,0 -2,0.896 -2,2zM12,28c0,1.104 0.896,2 2,2h4c1.104,0 2,-0.896 2,-2v-4c0,-1.104 -0.896,-2 -2,-2h-4c-1.104,0 -2,0.896 -2,2zM22,28c0,1.104 0.896,2 2,2h4c1.104,0 2,-0.896 2,-2v-4c0,-1.104 -0.896,-2 -2,-2h-4c-1.104,0 -2,0.896 -2,2z"></path></g></g></g></svg>