<svg width="400" height="404" viewBox="0 0 400 404" fill="none" xmlns="http://www.w3.org/2000/svg">
<path d="M302.624 282.965L382.714 263.465L382.654 120.455L302.774 110.425L302.624 282.965Z" fill="url(#paint0_linear_16654_218897)"/>
<path style="mix-blend-mode:lighten" d="M382.654 120.455L302.774 110.435V165.655C346.764 173.485 366.714 179.635 382.714 185.045L382.654 120.455Z" fill="url(#paint1_linear_16654_218897)"/>
<path d="M302.774 283.715L252.774 261.985V121.465L302.774 110.425V283.715Z" fill="url(#paint2_linear_16654_218897)"/>
<path d="M301.774 286.385L241.774 258.995V296.145L301.774 326.965V286.385Z" fill="url(#paint3_linear_16654_218897)"/>
<path d="M251.274 256.995L241.234 259.185L301.774 286.385L399.774 261.755L382.714 257.575V263.465L302.624 282.965L250.904 259.905" fill="url(#paint4_linear_16654_218897)"/>
<path d="M301.774 286.385L399.774 261.755V296.385L301.774 326.965V286.385Z" fill="url(#paint5_linear_16654_218897)"/>
<path d="M349.764 66.0247H313.784C308.808 66.0247 304.774 70.0586 304.774 75.0347V86.0147C304.774 90.9907 308.808 95.0247 313.784 95.0247H349.764C354.741 95.0247 358.774 90.9907 358.774 86.0147V75.0347C358.774 70.0586 354.741 66.0247 349.764 66.0247Z" fill="#807E73"/>
<path d="M304.774 86.0247V98.2047L311.474 93.3147" fill="#807E73"/>
<path d="M318.068 85.2646L320.253 74.3222L321.459 75.7031H317.701L318.243 73.0286H323.976L321.529 85.2646H318.068ZM329.155 85.5094C328.13 85.5094 327.232 85.3637 326.463 85.0724C325.694 84.781 325.094 84.3732 324.663 83.8488C324.232 83.3127 324.016 82.6951 324.016 81.9959C324.016 81.1452 324.249 80.4285 324.715 79.8458C325.181 79.2515 325.822 78.8029 326.638 78.4999C327.465 78.1852 328.409 78.0279 329.47 78.0279C330.507 78.0279 331.41 78.1678 332.179 78.4474C332.948 78.7155 333.549 79.1 333.98 79.6011C334.411 80.1022 334.626 80.7024 334.626 81.4016C334.626 82.2523 334.393 82.9864 333.927 83.604C333.461 84.21 332.814 84.682 331.987 85.0199C331.171 85.3462 330.227 85.5094 329.155 85.5094ZM329.208 83.0796C329.79 83.0796 330.256 82.934 330.606 82.6426C330.967 82.3513 331.148 81.9493 331.148 81.4365C331.148 80.9937 330.991 80.6499 330.676 80.4052C330.373 80.1605 329.959 80.0381 329.435 80.0381C328.852 80.0381 328.38 80.1838 328.019 80.4751C327.658 80.7665 327.477 81.1685 327.477 81.6812C327.477 82.1124 327.64 82.4562 327.967 82.7126C328.293 82.9573 328.707 83.0796 329.208 83.0796ZM330.239 79.741C329.307 79.741 328.479 79.6186 327.757 79.3739C327.046 79.1175 326.487 78.7563 326.079 78.2901C325.683 77.8123 325.484 77.253 325.484 76.612C325.484 75.808 325.7 75.1262 326.131 74.5669C326.562 73.9959 327.157 73.5589 327.914 73.2559C328.672 72.9412 329.54 72.7839 330.519 72.7839C331.463 72.7839 332.29 72.9238 333.001 73.2034C333.712 73.4715 334.265 73.8502 334.661 74.3396C335.058 74.8174 335.256 75.3826 335.256 76.0352C335.256 76.8276 335.04 77.5035 334.609 78.0629C334.189 78.6106 333.601 79.0301 332.844 79.3214C332.098 79.6011 331.23 79.741 330.239 79.741ZM330.291 77.7832C330.746 77.7832 331.113 77.6608 331.393 77.4161C331.684 77.1598 331.83 76.8102 331.83 76.3673C331.83 75.9944 331.701 75.7089 331.445 75.5108C331.2 75.3127 330.874 75.2136 330.466 75.2136C330.012 75.2136 329.639 75.3418 329.348 75.5982C329.068 75.8429 328.928 76.1867 328.928 76.6295C328.928 76.9908 329.05 77.2763 329.295 77.486C329.551 77.6842 329.884 77.7832 330.291 77.7832ZM336.692 85.2646L347.355 73.0286H349.995L339.349 85.2646H336.692ZM339.209 79.6536C338.394 79.6536 337.724 79.4088 337.199 78.9194C336.686 78.43 336.43 77.7366 336.43 76.8393C336.43 76.0935 336.57 75.4234 336.85 74.8291C337.141 74.2231 337.555 73.7453 338.091 73.3957C338.627 73.0461 339.268 72.8713 340.013 72.8713C340.841 72.8713 341.511 73.116 342.024 73.6055C342.536 74.0949 342.793 74.7883 342.793 75.6856C342.793 76.4314 342.647 77.1073 342.356 77.7133C342.076 78.3076 341.668 78.7796 341.132 79.1292C340.608 79.4788 339.967 79.6536 339.209 79.6536ZM339.402 77.993C339.716 77.993 339.967 77.8764 340.153 77.6434C340.34 77.4103 340.474 77.1248 340.555 76.7868C340.637 76.4372 340.678 76.1051 340.678 75.7905C340.678 75.336 340.596 75.0155 340.433 74.8291C340.27 74.631 340.066 74.5319 339.821 74.5319C339.507 74.5319 339.256 74.6485 339.07 74.8815C338.883 75.1146 338.749 75.4001 338.667 75.738C338.586 76.076 338.545 76.4081 338.545 76.7344C338.545 77.1889 338.627 77.5152 338.79 77.7133C338.965 77.8997 339.169 77.993 339.402 77.993ZM346.691 85.422C345.863 85.422 345.193 85.1772 344.681 84.6878C344.168 84.1984 343.911 83.505 343.911 82.6077C343.911 81.8619 344.051 81.1918 344.331 80.5975C344.622 80.0032 345.036 79.5312 345.572 79.1816C346.108 78.832 346.749 78.6572 347.495 78.6572C348.322 78.6572 348.992 78.9019 349.505 79.3914C350.018 79.8692 350.274 80.5567 350.274 81.454C350.274 82.1998 350.129 82.8757 349.837 83.4817C349.558 84.076 349.15 84.548 348.614 84.8976C348.089 85.2472 347.448 85.422 346.691 85.422ZM346.883 83.7788C347.198 83.7788 347.442 83.6623 347.617 83.4292C347.804 83.1962 347.938 82.9048 348.019 82.5552C348.101 82.2056 348.142 81.8735 348.142 81.5589C348.142 81.1044 348.06 80.7839 347.897 80.5975C347.734 80.3994 347.536 80.3003 347.303 80.3003C346.988 80.3003 346.737 80.4169 346.551 80.6499C346.365 80.883 346.23 81.1743 346.149 81.5239C346.067 81.8619 346.027 82.1882 346.027 82.5028C346.027 82.9573 346.108 83.2836 346.271 83.4817C346.434 83.6798 346.638 83.7788 346.883 83.7788Z" fill="white"/>
<path d="M183.774 322.715L133.774 300.985V57.4647L183.774 46.4247V322.715Z" fill="url(#paint6_linear_16654_218897)"/>
<path d="M183.624 322.205L263.654 302.215V56.9447L183.624 46.4247V322.205Z" fill="url(#paint7_linear_16654_218897)"/>
<path d="M182.774 325.385L122.774 297.995V335.145L182.774 365.965V325.385Z" fill="url(#paint8_linear_16654_218897)"/>
<path d="M134.524 295.995L123.234 298.185L182.774 325.385L280.414 300.805L263.654 296.835V302.215L183.624 321.965L134.484 300.375" fill="url(#paint9_linear_16654_218897)"/>
<path d="M182.774 325.385L280.774 300.755V335.385L182.774 365.965V325.385Z" fill="url(#paint10_linear_16654_218897)"/>
<path style="mix-blend-mode:lighten" d="M263.654 56.9447L183.774 46.4347L183.444 103.035C223.444 110.865 249.654 119.725 263.654 125.145V56.9447Z" fill="url(#paint11_linear_16654_218897)"/>
<path d="M228.764 0.0246582H192.784C187.808 0.0246582 183.774 4.05857 183.774 9.03466V20.0147C183.774 24.9907 187.808 29.0247 192.784 29.0247H228.764C233.74 29.0247 237.774 24.9907 237.774 20.0147V9.03466C237.774 4.05857 233.74 0.0246582 228.764 0.0246582Z" fill="#807E73"/>
<path d="M183.774 20.0247V32.2047L190.474 27.3147" fill="#807E73"/>
<path d="M61.1243 360.865L140.774 340.315V134.565L61.1143 124.335L61.1243 360.865Z" fill="url(#paint12_linear_16654_218897)"/>
<path d="M12.0146 334.905L0.724609 337.085L60.7746 363.385L157.775 338.755L140.775 333.985V340.315L61.1246 360.865L11.9746 339.285" fill="url(#paint13_linear_16654_218897)"/>
<path d="M60.7744 363.385L157.774 338.755V373.385L60.7744 403.965V363.385Z" fill="url(#paint14_linear_16654_218897)"/>
<path d="M60.7744 363.385L0.774414 336.995V373.145L60.7744 403.965V363.385Z" fill="url(#paint15_linear_16654_218897)"/>
<path d="M61.125 360.865L11.125 339.135V135.615L61.115 124.335L61.125 360.865Z" fill="url(#paint16_linear_16654_218897)"/>
<path style="mix-blend-mode:lighten" d="M140.774 134.565L61.1143 124.335V181.655C101.114 189.485 126.774 197.975 140.774 203.385V134.565Z" fill="url(#paint17_linear_16654_218897)"/>
<path d="M105.764 76.0247H69.7844C64.8083 76.0247 60.7744 80.0586 60.7744 85.0347V96.0147C60.7744 100.991 64.8083 105.025 69.7844 105.025H105.764C110.741 105.025 114.774 100.991 114.774 96.0147V85.0347C114.774 80.0586 110.741 76.0247 105.764 76.0247Z" fill="#807E73"/>
<path d="M60.7744 96.0247V108.205L67.4744 103.315" fill="#807E73"/>
<path d="M68.4964 97.6046L71.1214 84.4586L72.5704 86.1176H68.0554L68.7064 82.9046H75.5944L72.6544 97.6046H68.4964ZM79.9892 97.8986C78.9252 97.8986 77.9172 97.7656 76.9652 97.4996C76.0132 97.2196 75.1802 96.8136 74.4662 96.2816L76.3982 93.3206C76.9302 93.7126 77.5322 94.0136 78.2042 94.2236C78.8902 94.4336 79.5762 94.5386 80.2622 94.5386C80.8362 94.5386 81.3192 94.4756 81.7112 94.3496C82.1032 94.2096 82.3972 94.0136 82.5932 93.7616C82.8032 93.4956 82.9082 93.1806 82.9082 92.8166C82.9082 92.4106 82.7472 92.1026 82.4252 91.8926C82.1172 91.6826 81.6272 91.5776 80.9552 91.5776H79.1702L79.6952 88.9526L84.4202 84.6896L84.6512 86.1176H77.0912L77.7422 82.9046H88.3682L87.8642 85.5086L83.1392 89.7716L81.2492 88.6586H82.1732C83.1952 88.6586 84.0702 88.8196 84.7982 89.1416C85.5402 89.4496 86.1072 89.8976 86.4992 90.4856C86.9052 91.0736 87.1082 91.7666 87.1082 92.5646C87.1082 93.5866 86.8002 94.5036 86.1842 95.3156C85.5822 96.1136 84.7422 96.7436 83.6642 97.2056C82.5862 97.6676 81.3612 97.8986 79.9892 97.8986ZM89.4764 97.6046L102.286 82.9046H105.457L92.6684 97.6046H89.4764ZM92.5004 90.8636C91.5204 90.8636 90.7154 90.5696 90.0854 89.9816C89.4694 89.3936 89.1614 88.5606 89.1614 87.4826C89.1614 86.5866 89.3294 85.7816 89.6654 85.0676C90.0154 84.3396 90.5124 83.7656 91.1564 83.3456C91.8004 82.9256 92.5704 82.7156 93.4664 82.7156C94.4604 82.7156 95.2654 83.0096 95.8814 83.5976C96.4974 84.1856 96.8054 85.0186 96.8054 86.0966C96.8054 86.9926 96.6304 87.8046 96.2804 88.5326C95.9444 89.2466 95.4544 89.8136 94.8104 90.2336C94.1804 90.6536 93.4104 90.8636 92.5004 90.8636ZM92.7314 88.8686C93.1094 88.8686 93.4104 88.7286 93.6344 88.4486C93.8584 88.1686 94.0194 87.8256 94.1174 87.4196C94.2154 86.9996 94.2644 86.6006 94.2644 86.2226C94.2644 85.6766 94.1664 85.2916 93.9704 85.0676C93.7744 84.8296 93.5294 84.7106 93.2354 84.7106C92.8574 84.7106 92.5564 84.8506 92.3324 85.1306C92.1084 85.4106 91.9474 85.7536 91.8494 86.1596C91.7514 86.5656 91.7024 86.9646 91.7024 87.3566C91.7024 87.9026 91.8004 88.2946 91.9964 88.5326C92.2064 88.7566 92.4514 88.8686 92.7314 88.8686ZM101.488 97.7936C100.494 97.7936 99.6894 97.4996 99.0734 96.9116C98.4574 96.3236 98.1494 95.4906 98.1494 94.4126C98.1494 93.5166 98.3174 92.7116 98.6534 91.9976C99.0034 91.2836 99.5004 90.7166 100.144 90.2966C100.788 89.8766 101.558 89.6666 102.454 89.6666C103.448 89.6666 104.253 89.9606 104.869 90.5486C105.485 91.1226 105.793 91.9486 105.793 93.0266C105.793 93.9226 105.618 94.7346 105.268 95.4626C104.932 96.1766 104.442 96.7436 103.798 97.1636C103.168 97.5836 102.398 97.7936 101.488 97.7936ZM101.719 95.8196C102.097 95.8196 102.391 95.6796 102.601 95.3996C102.825 95.1196 102.986 94.7696 103.084 94.3496C103.182 93.9296 103.231 93.5306 103.231 93.1526C103.231 92.6066 103.133 92.2216 102.937 91.9976C102.741 91.7596 102.503 91.6406 102.223 91.6406C101.845 91.6406 101.544 91.7806 101.32 92.0606C101.096 92.3406 100.935 92.6906 100.837 93.1106C100.739 93.5166 100.69 93.9086 100.69 94.2866C100.69 94.8326 100.788 95.2246 100.984 95.4626C101.18 95.7006 101.425 95.8196 101.719 95.8196Z" fill="white"/>
<path d="M193.215 21.2646L193.652 19.0971L199.001 14.9369C199.421 14.5989 199.747 14.3076 199.98 14.0629C200.213 13.8182 200.376 13.5851 200.469 13.3637C200.574 13.1423 200.627 12.9209 200.627 12.6994C200.627 12.3615 200.499 12.0876 200.242 11.8779C199.986 11.6681 199.619 11.5632 199.141 11.5632C198.721 11.5632 198.314 11.674 197.917 11.8954C197.533 12.1051 197.183 12.4023 196.869 12.7868L194.561 11.2661C195.051 10.5086 195.744 9.90848 196.641 9.46565C197.539 9.01117 198.547 8.78393 199.665 8.78393C200.551 8.78393 201.332 8.92959 202.008 9.22093C202.695 9.51226 203.225 9.9143 203.598 10.427C203.983 10.9281 204.175 11.5108 204.175 12.175C204.175 12.6645 204.088 13.1364 203.913 13.5909C203.738 14.0454 203.441 14.5115 203.022 14.9893C202.614 15.4555 202.043 15.9682 201.308 16.5276L197.131 19.7614L196.659 18.5203H203.301L202.742 21.2646H193.215ZM209.535 21.5094C208.51 21.5094 207.612 21.3637 206.843 21.0724C206.074 20.781 205.474 20.3732 205.043 19.8488C204.612 19.3127 204.396 18.6951 204.396 17.9959C204.396 17.1452 204.629 16.4285 205.095 15.8458C205.561 15.2515 206.202 14.8029 207.018 14.4999C207.845 14.1852 208.789 14.0279 209.85 14.0279C210.887 14.0279 211.79 14.1678 212.559 14.4474C213.328 14.7155 213.928 15.1 214.36 15.6011C214.791 16.1022 215.006 16.7024 215.006 17.4016C215.006 18.2523 214.773 18.9864 214.307 19.604C213.841 20.21 213.194 20.682 212.367 21.0199C211.551 21.3462 210.607 21.5094 209.535 21.5094ZM209.588 19.0796C210.17 19.0796 210.636 18.934 210.986 18.6426C211.347 18.3513 211.528 17.9493 211.528 17.4365C211.528 16.9937 211.371 16.6499 211.056 16.4052C210.753 16.1605 210.339 16.0381 209.815 16.0381C209.232 16.0381 208.76 16.1838 208.399 16.4751C208.038 16.7665 207.857 17.1685 207.857 17.6812C207.857 18.1124 208.02 18.4562 208.347 18.7126C208.673 18.9573 209.086 19.0796 209.588 19.0796ZM210.619 15.741C209.687 15.741 208.859 15.6186 208.137 15.3739C207.426 15.1175 206.867 14.7563 206.459 14.2901C206.062 13.8123 205.864 13.253 205.864 12.612C205.864 11.808 206.08 11.1262 206.511 10.5669C206.942 9.99587 207.537 9.55888 208.294 9.25589C209.052 8.94125 209.92 8.78393 210.899 8.78393C211.843 8.78393 212.67 8.92377 213.381 9.20345C214.092 9.47147 214.645 9.85021 215.041 10.3396C215.438 10.8174 215.636 11.3826 215.636 12.0352C215.636 12.8276 215.42 13.5035 214.989 14.0629C214.569 14.6106 213.981 15.0301 213.223 15.3214C212.478 15.6011 211.609 15.741 210.619 15.741ZM210.671 13.7832C211.126 13.7832 211.493 13.6608 211.773 13.4161C212.064 13.1598 212.21 12.8102 212.21 12.3673C212.21 11.9944 212.081 11.7089 211.825 11.5108C211.58 11.3127 211.254 11.2136 210.846 11.2136C210.392 11.2136 210.019 11.3418 209.727 11.5982C209.448 11.8429 209.308 12.1867 209.308 12.6295C209.308 12.9908 209.43 13.2763 209.675 13.486C209.931 13.6842 210.263 13.7832 210.671 13.7832ZM217.072 21.2646L227.735 9.02865H230.374L219.729 21.2646H217.072ZM219.589 15.6536C218.774 15.6536 218.103 15.4088 217.579 14.9194C217.066 14.43 216.81 13.7366 216.81 12.8393C216.81 12.0935 216.95 11.4234 217.229 10.8291C217.521 10.2231 217.935 9.74533 218.471 9.39573C219.007 9.04613 219.648 8.87133 220.393 8.87133C221.221 8.87133 221.891 9.11605 222.404 9.60549C222.916 10.0949 223.173 10.7883 223.173 11.6856C223.173 12.4314 223.027 13.1073 222.736 13.7133C222.456 14.3076 222.048 14.7796 221.512 15.1292C220.988 15.4788 220.347 15.6536 219.589 15.6536ZM219.782 13.993C220.096 13.993 220.347 13.8764 220.533 13.6434C220.72 13.4103 220.854 13.1248 220.935 12.7868C221.017 12.4372 221.058 12.1051 221.058 11.7905C221.058 11.336 220.976 11.0155 220.813 10.8291C220.65 10.631 220.446 10.5319 220.201 10.5319C219.886 10.5319 219.636 10.6485 219.449 10.8815C219.263 11.1146 219.129 11.4001 219.047 11.738C218.966 12.076 218.925 12.4081 218.925 12.7344C218.925 13.1889 219.007 13.5152 219.17 13.7133C219.345 13.8997 219.548 13.993 219.782 13.993ZM227.071 21.422C226.243 21.422 225.573 21.1772 225.061 20.6878C224.548 20.1984 224.291 19.505 224.291 18.6077C224.291 17.8619 224.431 17.1918 224.711 16.5975C225.002 16.0032 225.416 15.5312 225.952 15.1816C226.488 14.832 227.129 14.6572 227.875 14.6572C228.702 14.6572 229.372 14.9019 229.885 15.3914C230.398 15.8692 230.654 16.5567 230.654 17.454C230.654 18.1998 230.508 18.8757 230.217 19.4817C229.937 20.076 229.53 20.548 228.994 20.8976C228.469 21.2472 227.828 21.422 227.071 21.422ZM227.263 19.7788C227.578 19.7788 227.822 19.6623 227.997 19.4292C228.184 19.1962 228.318 18.9048 228.399 18.5552C228.481 18.2056 228.522 17.8735 228.522 17.5589C228.522 17.1044 228.44 16.7839 228.277 16.5975C228.114 16.3994 227.916 16.3003 227.683 16.3003C227.368 16.3003 227.117 16.4169 226.931 16.6499C226.744 16.883 226.61 17.1743 226.529 17.5239C226.447 17.8619 226.406 18.1882 226.406 18.5028C226.406 18.9573 226.488 19.2836 226.651 19.4817C226.814 19.6798 227.018 19.7788 227.263 19.7788Z" fill="white"/>
<defs>
<linearGradient id="paint0_linear_16654_218897" x1="302.624" y1="196.695" x2="382.714" y2="196.695" gradientUnits="userSpaceOnUse">
<stop stop-color="#1E92E7"/>
<stop offset="0.31" stop-color="#2198E9"/>
<stop offset="0.76" stop-color="#2BABF0"/>
<stop offset="1" stop-color="#32B9F5"/>
</linearGradient>
<linearGradient id="paint1_linear_16654_218897" x1="302.774" y1="147.735" x2="402.714" y2="147.735" gradientUnits="userSpaceOnUse">
<stop stop-color="#999999" stop-opacity="0"/>
<stop offset="0.16" stop-color="#9A9A9A" stop-opacity="0.01"/>
<stop offset="0.3" stop-color="#A0A0A0" stop-opacity="0.06"/>
<stop offset="0.44" stop-color="#A9A9A9" stop-opacity="0.13"/>
<stop offset="0.57" stop-color="#B5B5B5" stop-opacity="0.23"/>
<stop offset="0.69" stop-color="#C6C6C6" stop-opacity="0.36"/>
<stop offset="0.82" stop-color="#DADADA" stop-opacity="0.51"/>
<stop offset="0.94" stop-color="#F2F2F2" stop-opacity="0.7"/>
<stop offset="1" stop-color="white" stop-opacity="0.8"/>
</linearGradient>
<linearGradient id="paint2_linear_16654_218897" x1="252.774" y1="197.065" x2="302.774" y2="197.065" gradientUnits="userSpaceOnUse">
<stop stop-color="#0043BD"/>
<stop offset="0.02" stop-color="#0046BE"/>
<stop offset="0.14" stop-color="#0357C6"/>
<stop offset="0.29" stop-color="#0663CC"/>
<stop offset="0.5" stop-color="#076BD0"/>
<stop offset="1" stop-color="#086DD1"/>
</linearGradient>
<linearGradient id="paint3_linear_16654_218897" x1="241.774" y1="292.985" x2="301.774" y2="292.985" gradientUnits="userSpaceOnUse">
<stop stop-color="#262222"/>
<stop offset="0.3" stop-color="#353232"/>
<stop offset="0.89" stop-color="#5D5C5C"/>
<stop offset="1" stop-color="#666666"/>
</linearGradient>
<linearGradient id="paint4_linear_16654_218897" x1="360.784" y1="300.745" x2="280.224" y2="220.185" gradientUnits="userSpaceOnUse">
<stop stop-color="#B8B5B5"/>
<stop offset="0.08" stop-color="#A9A6A6"/>
<stop offset="0.38" stop-color="#797575"/>
<stop offset="0.65" stop-color="#565151"/>
<stop offset="0.86" stop-color="#403B3B"/>
<stop offset="1" stop-color="#393434"/>
</linearGradient>
<linearGradient id="paint5_linear_16654_218897" x1="301.774" y1="294.365" x2="399.774" y2="294.365" gradientUnits="userSpaceOnUse">
<stop stop-color="#999999"/>
<stop offset="0.31" stop-color="#A9A9A9"/>
<stop offset="0.91" stop-color="#D3D3D3"/>
<stop offset="1" stop-color="#DBDADA"/>
</linearGradient>
<linearGradient id="paint6_linear_16654_218897" x1="133.774" y1="184.565" x2="183.774" y2="184.565" gradientUnits="userSpaceOnUse">
<stop stop-color="#AAE8FF"/>
<stop offset="0.02" stop-color="#A0E5FF"/>
<stop offset="0.08" stop-color="#80DEFF"/>
<stop offset="0.15" stop-color="#65D8FF"/>
<stop offset="0.22" stop-color="#4FD4FF"/>
<stop offset="0.31" stop-color="#3ED0FF"/>
<stop offset="0.42" stop-color="#32CDFF"/>
<stop offset="0.57" stop-color="#2BCCFF"/>
<stop offset="1" stop-color="#2ACCFF"/>
</linearGradient>
<linearGradient id="paint7_linear_16654_218897" x1="183.624" y1="184.315" x2="263.654" y2="184.315" gradientUnits="userSpaceOnUse">
<stop stop-color="#2ACCFF"/>
<stop offset="0.06" stop-color="#44D1FF"/>
<stop offset="0.12" stop-color="#5ED7FF"/>
<stop offset="0.2" stop-color="#74DBFF"/>
<stop offset="0.29" stop-color="#85DFFF"/>
<stop offset="0.4" stop-color="#91E2FF"/>
<stop offset="0.56" stop-color="#98E3FF"/>
<stop offset="1" stop-color="#9AE4FF"/>
</linearGradient>
<linearGradient id="paint8_linear_16654_218897" x1="122.774" y1="331.985" x2="182.774" y2="331.985" gradientUnits="userSpaceOnUse">
<stop stop-color="#262222"/>
<stop offset="0.3" stop-color="#353232"/>
<stop offset="0.89" stop-color="#5D5C5C"/>
<stop offset="1" stop-color="#666666"/>
</linearGradient>
<linearGradient id="paint9_linear_16654_218897" x1="241.774" y1="339.445" x2="161.874" y2="259.545" gradientUnits="userSpaceOnUse">
<stop stop-color="#B8B5B5"/>
<stop offset="0.08" stop-color="#A9A6A6"/>
<stop offset="0.38" stop-color="#797575"/>
<stop offset="0.65" stop-color="#565151"/>
<stop offset="0.86" stop-color="#403B3B"/>
<stop offset="1" stop-color="#393434"/>
</linearGradient>
<linearGradient id="paint10_linear_16654_218897" x1="182.774" y1="333.365" x2="280.774" y2="333.365" gradientUnits="userSpaceOnUse">
<stop stop-color="#999999"/>
<stop offset="0.31" stop-color="#A9A9A9"/>
<stop offset="0.91" stop-color="#D3D3D3"/>
<stop offset="1" stop-color="#DBDADA"/>
</linearGradient>
<linearGradient id="paint11_linear_16654_218897" x1="183.444" y1="85.7847" x2="283.724" y2="85.7847" gradientUnits="userSpaceOnUse">
<stop stop-color="#999999" stop-opacity="0"/>
<stop offset="0.16" stop-color="#9A9A9A" stop-opacity="0.01"/>
<stop offset="0.3" stop-color="#A0A0A0" stop-opacity="0.06"/>
<stop offset="0.44" stop-color="#A9A9A9" stop-opacity="0.13"/>
<stop offset="0.57" stop-color="#B5B5B5" stop-opacity="0.23"/>
<stop offset="0.69" stop-color="#C6C6C6" stop-opacity="0.36"/>
<stop offset="0.82" stop-color="#DADADA" stop-opacity="0.51"/>
<stop offset="0.94" stop-color="#F2F2F2" stop-opacity="0.7"/>
<stop offset="1" stop-color="white" stop-opacity="0.8"/>
</linearGradient>
<linearGradient id="paint12_linear_16654_218897" x1="61.1143" y1="242.595" x2="140.774" y2="242.595" gradientUnits="userSpaceOnUse">
<stop stop-color="#D06700"/>
<stop offset="0.04" stop-color="#D77300"/>
<stop offset="0.14" stop-color="#E48A00"/>
<stop offset="0.24" stop-color="#EF9B00"/>
<stop offset="0.38" stop-color="#F6A700"/>
<stop offset="0.56" stop-color="#FAAF00"/>
<stop offset="1" stop-color="#FCB100"/>
</linearGradient>
<linearGradient id="paint13_linear_16654_218897" x1="118.935" y1="377.605" x2="39.5746" y2="298.245" gradientUnits="userSpaceOnUse">
<stop stop-color="#B8B5B5"/>
<stop offset="0.08" stop-color="#A9A6A6"/>
<stop offset="0.38" stop-color="#797575"/>
<stop offset="0.65" stop-color="#565151"/>
<stop offset="0.86" stop-color="#403B3B"/>
<stop offset="1" stop-color="#393434"/>
</linearGradient>
<linearGradient id="paint14_linear_16654_218897" x1="60.7744" y1="371.365" x2="157.774" y2="371.365" gradientUnits="userSpaceOnUse">
<stop stop-color="#999999"/>
<stop offset="0.31" stop-color="#A9A9A9"/>
<stop offset="0.91" stop-color="#D3D3D3"/>
<stop offset="1" stop-color="#DBDADA"/>
</linearGradient>
<linearGradient id="paint15_linear_16654_218897" x1="0.774414" y1="370.485" x2="60.7744" y2="370.485" gradientUnits="userSpaceOnUse">
<stop stop-color="#262222"/>
<stop offset="0.3" stop-color="#353232"/>
<stop offset="0.89" stop-color="#5D5C5C"/>
<stop offset="1" stop-color="#666666"/>
</linearGradient>
<linearGradient id="paint16_linear_16654_218897" x1="11.125" y1="242.595" x2="61.125" y2="242.595" gradientUnits="userSpaceOnUse">
<stop stop-color="#AF4D25"/>
<stop offset="0.12" stop-color="#BE5814"/>
<stop offset="0.26" stop-color="#C86108"/>
<stop offset="0.46" stop-color="#CE6501"/>
<stop offset="1" stop-color="#D06700"/>
</linearGradient>
<linearGradient id="paint17_linear_16654_218897" x1="61.1143" y1="163.855" x2="160.714" y2="163.855" gradientUnits="userSpaceOnUse">
<stop stop-color="#999999" stop-opacity="0"/>
<stop offset="0.16" stop-color="#9A9A9A" stop-opacity="0.01"/>
<stop offset="0.3" stop-color="#A0A0A0" stop-opacity="0.06"/>
<stop offset="0.44" stop-color="#A9A9A9" stop-opacity="0.13"/>
<stop offset="0.57" stop-color="#B5B5B5" stop-opacity="0.23"/>
<stop offset="0.69" stop-color="#C6C6C6" stop-opacity="0.36"/>
<stop offset="0.82" stop-color="#DADADA" stop-opacity="0.51"/>
<stop offset="0.94" stop-color="#F2F2F2" stop-opacity="0.7"/>
<stop offset="1" stop-color="white" stop-opacity="0.8"/>
</linearGradient>
</defs>
</svg>
