<svg width="227" height="154" viewBox="0 0 227 154" fill="none" xmlns="http://www.w3.org/2000/svg">
<g clip-path="url(#clip0_16776_29571)">
<path d="M150.448 45.5112C150.448 45.5112 161.784 21.9511 148.891 17.058C148.891 17.058 127.553 8.38966 93.5449 46.1764C93.5449 46.1764 102.436 12.8335 150.894 0.386514C150.894 0.386514 178.901 -2.727 160.008 34.3946C160.008 34.3946 156.894 40.3952 150.451 45.5077L150.448 45.5112Z" fill="white"/>
<path d="M150.225 61.0045C150.225 61.0045 161.561 84.5646 148.669 89.4578C148.669 89.4578 127.33 98.1261 93.3223 60.3394C93.3223 60.3394 102.213 93.6823 150.671 106.129C150.671 106.129 178.679 109.243 159.785 72.1212C159.785 72.1212 156.672 66.1206 150.229 61.0081L150.225 61.0045Z" fill="white"/>
<path d="M147.338 61.9597C152.249 61.9597 156.23 57.9789 156.23 53.0685C156.23 48.158 152.249 44.1772 147.338 44.1772C142.428 44.1772 138.447 48.158 138.447 53.0685C138.447 57.9789 142.428 61.9597 147.338 61.9597Z" fill="white"/>
<path d="M76.5483 45.5112C76.5483 45.5112 65.2123 21.9511 78.105 17.058C78.105 17.058 99.4432 8.38966 133.451 46.1764C133.451 46.1764 124.56 12.8335 76.1025 0.386514C76.1025 0.386514 48.095 -2.727 66.9884 34.3946C66.9884 34.3946 70.1019 40.3952 76.5448 45.5077L76.5483 45.5112Z" fill="white"/>
<path d="M76.7709 61.0045C76.7709 61.0045 65.4349 84.5646 78.3277 89.4578C78.3277 89.4578 99.6659 98.1261 133.674 60.3394C133.674 60.3394 124.783 93.6823 76.3251 106.129C76.3251 106.129 48.3177 109.243 67.211 72.1212C67.211 72.1212 70.3246 66.1206 76.7674 61.0081L76.7709 61.0045Z" fill="white"/>
<path d="M79.6627 61.9597C84.5732 61.9597 88.5539 57.9789 88.5539 53.0685C88.5539 48.158 84.5732 44.1772 79.6627 44.1772C74.7522 44.1772 70.7715 48.158 70.7715 53.0685C70.7715 57.9789 74.7522 61.9597 79.6627 61.9597Z" fill="white"/>
<path d="M23.2381 145.2H0V114.157H23.2381V119.832H5.80953V126.972H22.619V132.427H5.80953V139.436H23.2381V145.2Z" fill="white"/>
<path d="M49.1356 123.335H54.326V145.2H49.2276L48.9623 142.009C47.7204 144.581 44.3062 145.823 41.8649 145.869C35.3902 145.915 30.5996 141.92 30.5996 134.25C30.5996 126.579 35.6095 122.762 41.9958 122.808C44.9218 122.808 47.7169 124.184 48.9587 126.356L49.1356 123.342V123.335ZM36.0093 134.246C36.0093 138.414 38.8929 140.898 42.484 140.898C51.0002 140.898 51.0002 127.637 42.484 127.637C38.8929 127.637 36.0093 130.075 36.0093 134.246Z" fill="white"/>
<path d="M77.6045 129.144C76.0513 127.68 74.2787 127.191 72.1948 127.191C69.6226 127.191 68.2038 127.991 68.2038 129.364C68.2038 130.736 69.4917 131.582 72.2832 131.759C76.4086 132.024 81.6414 132.955 81.6414 138.764C81.6414 142.624 78.4925 145.95 72.2407 145.95C68.7805 145.95 65.3238 145.373 62.1289 142.048L64.7895 138.188C66.3428 139.918 69.8915 141.202 72.3292 141.248C74.3707 141.294 76.2777 140.229 76.2777 138.63C76.2777 137.123 75.0358 136.5 71.9329 136.323C67.8075 136.012 62.8861 134.504 62.8861 129.537C62.8861 124.57 68.1189 122.708 72.1098 122.708C75.5241 122.708 78.0963 123.374 80.626 125.592L77.6116 129.141L77.6045 129.144Z" fill="white"/>
<path d="M111.574 123.334L98.2251 154.335H92.2811L96.3605 144.846L87.625 123.338H93.9228L97.2486 132.785L99.3325 138.948L101.593 132.916L105.584 123.338H111.571L111.574 123.334Z" fill="white"/>
<path d="M142.124 145.2H139.729L136.18 135.623L133.52 127.107L130.77 135.665L127.222 145.2H124.826L117.021 123.292H119.417L126.026 142.674L132.724 123.292H134.277L140.928 142.674L147.491 123.292H149.887L142.124 145.2Z" fill="white"/>
<path d="M156.848 134.289C156.848 127.326 161.815 122.893 167.978 122.893C174.142 122.893 179.109 127.326 179.109 134.289C179.109 141.252 174.142 145.508 167.978 145.508C161.815 145.508 156.848 141.252 156.848 134.289ZM176.983 134.289C176.983 128.614 172.946 124.931 167.978 124.931C163.011 124.931 158.974 128.61 158.974 134.289C158.974 139.967 163.011 143.382 167.978 143.382C172.946 143.382 176.983 139.967 176.983 134.289Z" fill="white"/>
<path d="M190.593 123.292L190.681 127.195C192.057 124.223 195.16 123.069 197.955 123.069C199.597 123.023 201.193 123.469 202.657 124.357L201.681 126.13C200.528 125.418 199.243 125.111 197.955 125.111C193.876 125.157 190.727 128.436 190.727 132.427V145.2H188.555V123.292H190.596H190.593Z" fill="white"/>
<path d="M212.501 114.157V132.873L222.836 123.296H225.719V123.384L214.631 133.63L227.004 145.073V145.207H224.255L212.501 134.476V145.207H210.371V114.164H212.501V114.157Z" fill="white"/>
</g>
<defs>
<clipPath id="clip0_16776_29571">
<rect width="227" height="172.1" fill="white" transform="translate(0 0.322754)"/>
</clipPath>
</defs>
</svg>
