<svg width="22" height="22" viewBox="0 0 22 22" fill="none" xmlns="http://www.w3.org/2000/svg">
<path d="M18.7772 9.32709C18.7772 9.32709 21.0454 4.61291 18.4657 3.63383C18.4657 3.63383 14.1961 1.89937 7.39136 9.46018C7.39136 9.46018 9.17041 2.78855 18.8664 0.298012C18.8664 0.298012 24.4704 -0.324976 20.69 7.10274C20.69 7.10274 20.067 8.30341 18.7779 9.32638L18.7772 9.32709Z" fill="#262261"/>
<path d="M18.7275 12.428C18.7275 12.428 20.9957 17.1422 18.416 18.1213C18.416 18.1213 14.1464 19.8557 7.34167 12.2949C7.34167 12.2949 9.12073 18.9666 18.8167 21.4571C18.8167 21.4571 24.4207 22.0801 20.6403 14.6524C20.6403 14.6524 20.0174 13.4517 18.7282 12.4287L18.7275 12.428Z" fill="#262261"/>
<path d="M18.1548 12.6187C19.1373 12.6187 19.9338 11.8221 19.9338 10.8396C19.9338 9.85706 19.1373 9.06055 18.1548 9.06055C17.1722 9.06055 16.3757 9.85706 16.3757 10.8396C16.3757 11.8221 17.1722 12.6187 18.1548 12.6187Z" fill="#58595B"/>
<path d="M3.9853 9.32709C3.9853 9.32709 1.71706 4.61291 4.2968 3.63383C4.2968 3.63383 8.56639 1.89937 15.3711 9.46018C15.3711 9.46018 13.5921 2.78855 3.8961 0.298012C3.8961 0.298012 -1.70796 -0.324976 2.07245 7.10274C2.07245 7.10274 2.69543 8.30341 3.98459 9.32638L3.9853 9.32709Z" fill="#262261"/>
<path d="M4.02986 12.428C4.02986 12.428 1.76162 17.1422 4.34135 18.1213C4.34135 18.1213 8.61094 19.8557 15.4157 12.2949C15.4157 12.2949 13.6366 18.9666 3.94066 21.4571C3.94066 21.4571 -1.6634 22.0801 2.117 14.6524C2.117 14.6524 2.73999 13.4517 4.02915 12.4287L4.02986 12.428Z" fill="#262261"/>
<path d="M4.60828 12.6187C5.59082 12.6187 6.38733 11.8221 6.38733 10.8396C6.38733 9.85706 5.59082 9.06055 4.60828 9.06055C3.62573 9.06055 2.82922 9.85706 2.82922 10.8396C2.82922 11.8221 3.62573 12.6187 4.60828 12.6187Z" fill="#58595B"/>
</svg>
