<svg width="28" height="28" viewBox="0 0 28 28" fill="none" xmlns="http://www.w3.org/2000/svg">
<g clip-path="url(#clip0_15624_25855)">
<path d="M13.6875 18.8594H14.8126V26.7345H13.6875V18.8594Z" fill="black"/>
<path d="M5.8125 16.6094H22.6875V17.7343H5.8125V16.6094Z" fill="black"/>
<path d="M24.9376 9.29694C23.3867 9.29694 22.125 8.03523 22.125 6.48451C22.125 4.93359 23.3867 3.67188 24.9376 3.67188C26.4884 3.67188 27.7501 4.93359 27.7501 6.48451C27.7501 8.03523 26.4884 9.29694 24.9376 9.29694ZM24.9376 4.79701C24.0072 4.79701 23.2501 5.55404 23.2501 6.48451C23.2501 7.41478 24.0072 8.17201 24.9376 8.17201C25.8679 8.17201 26.6251 7.41478 26.6251 6.48451C26.6251 5.55404 25.8679 4.79701 24.9376 4.79701Z" fill="black"/>
<path d="M19.3124 26.7345C19.2383 26.7345 19.1629 26.7203 19.0908 26.6888C18.8051 26.5662 18.6728 26.2356 18.7956 25.9503L20.4831 22.0127C20.5713 21.8059 20.775 21.672 20.9999 21.672H24.9375C25.8678 21.672 26.625 20.9148 26.625 19.9845V12.6719C26.625 12.0515 26.1203 11.547 25.4999 11.547H24.9375C24.5426 11.547 24.1832 11.808 23.6989 12.4493C23.1554 13.1669 21.5063 15.1919 21.4364 15.2774C21.3289 15.4086 21.1693 15.4844 20.9999 15.4844H18.1875C17.8769 15.4844 17.6249 15.7365 17.6249 16.0469V17.1719C17.6249 17.4829 17.3734 17.7344 17.0624 17.7344C16.7513 17.7344 16.5 17.4829 16.5 17.1719V16.0469C16.5 15.1165 17.257 14.3594 18.1875 14.3594H20.7321C21.1754 13.8138 22.3702 12.3401 22.8011 11.7703C23.2764 11.1424 23.9479 10.4219 24.9375 10.4219H25.4999C26.7408 10.4219 27.7499 11.431 27.7499 12.6719V19.9845C27.7499 21.5352 26.4882 22.7969 24.9375 22.7969H21.3707L19.8293 26.3936C19.7382 26.6068 19.5306 26.7345 19.3124 26.7345Z" fill="black"/>
<path d="M17.0622 26.7344C17.0037 26.7344 16.9436 26.7247 16.8844 26.7051C16.5903 26.6073 16.4306 26.2888 16.5291 25.9934L18.3944 20.3972C18.6996 19.478 19.558 18.8592 20.5285 18.8592H22.1247V17.1717C22.1247 16.8607 22.3762 16.6094 22.6873 16.6094C22.9983 16.6094 23.2498 16.8607 23.2498 17.1717V19.4218C23.2498 19.7329 22.9983 19.9844 22.6873 19.9844H20.5285C20.0436 19.9844 19.6143 20.2932 19.4618 20.7527L17.5961 26.3496C17.5172 26.5852 17.2979 26.7344 17.0622 26.7344Z" fill="black"/>
<path d="M22.6871 17.7377C22.5697 17.7377 22.4514 17.7012 22.3503 17.6252C22.1016 17.439 22.051 17.0863 22.2376 16.8383L23.9251 14.5883C24.1113 14.3396 24.464 14.2896 24.7122 14.4758C24.9608 14.662 25.0113 15.0147 24.8247 15.2627L23.1372 17.5127C23.0274 17.66 22.8587 17.7377 22.6871 17.7377Z" fill="black"/>
<path d="M3.56243 9.29694C2.01171 9.29694 0.75 8.03523 0.75 6.48451C0.75 4.93359 2.01171 3.67188 3.56243 3.67188C5.11336 3.67188 6.37507 4.93359 6.37507 6.48451C6.37507 8.03523 5.11336 9.29694 3.56243 9.29694ZM3.56243 4.79701C2.63216 4.79701 1.87493 5.55404 1.87493 6.48451C1.87493 7.41478 2.63216 8.17201 3.56243 8.17201C4.4929 8.17201 5.24993 7.41478 5.24993 6.48451C5.24993 5.55404 4.4929 4.79701 3.56243 4.79701Z" fill="black"/>
<path d="M9.1875 26.7345C8.96935 26.7345 8.76171 26.6068 8.67066 26.3936L7.12921 22.7969H3.56243C2.01171 22.7969 0.75 21.5352 0.75 19.9845V12.6719C0.75 11.431 1.75916 10.4219 3.00007 10.4219H3.56243C4.55202 10.4219 5.22418 11.1424 5.69838 11.7703C6.12973 12.3401 7.32388 13.8138 7.76717 14.3594H10.3124C11.2429 14.3594 11.9999 15.1165 11.9999 16.0469V17.1719C11.9999 17.4829 11.748 17.7344 11.4376 17.7344C11.1269 17.7344 10.875 17.4829 10.875 17.1719V16.0469C10.875 15.7365 10.6225 15.4844 10.3124 15.4844H7.5C7.33067 15.4844 7.17103 15.4086 7.06412 15.2774C6.99429 15.1919 5.34448 13.1669 4.80169 12.4486C4.31678 11.808 3.95794 11.547 3.56243 11.547H3.00007C2.37962 11.547 1.87493 12.0515 1.87493 12.6719V19.9845C1.87493 20.9148 2.63216 21.672 3.56243 21.672H7.5C7.72495 21.672 7.92867 21.8059 8.01684 22.0127L9.70434 25.9503C9.82711 26.2356 9.69424 26.5662 9.40915 26.6888C9.33705 26.7203 9.26166 26.7345 9.1875 26.7345Z" fill="black"/>
<path d="M11.4376 26.7344C11.202 26.7344 10.9826 26.5852 10.9037 26.3496L9.03843 20.7531C8.88558 20.2938 8.45629 19.9844 7.97138 19.9844H5.81257C5.50214 19.9844 5.25 19.7329 5.25 19.4218V17.1717C5.25 16.8607 5.50214 16.6094 5.81257 16.6094C6.123 16.6094 6.37514 16.8607 6.37514 17.1717V18.8592H7.97138C8.94182 18.8592 9.79958 19.4774 10.1061 20.3972L11.9714 25.9934C12.0698 26.2882 11.9106 26.6073 11.6158 26.7051C11.5563 26.7247 11.4961 26.7344 11.4376 26.7344Z" fill="black"/>
<path d="M5.81331 17.7377C5.64234 17.7377 5.47342 17.66 5.3626 17.5127L3.6751 15.2627C3.48847 15.0147 3.53914 14.662 3.78778 14.4758C4.03744 14.2896 4.38949 14.3396 4.57529 14.5883L6.26279 16.8383C6.44942 17.0863 6.39875 17.439 6.15011 17.6252C6.04897 17.7012 5.93032 17.7377 5.81331 17.7377Z" fill="black"/>
<path d="M18.7499 15.4843C18.4389 15.4843 18.1876 15.233 18.1876 14.9219V10.9844C18.1876 9.74347 17.1784 8.73431 15.9375 8.73431H12.5625C11.3216 8.73431 10.3124 9.74347 10.3124 10.9844V12.6719C10.3124 12.9823 10.0605 13.2344 9.75007 13.2344C9.43943 13.2344 9.1875 12.9823 9.1875 12.6719V10.9844C9.1875 9.12302 10.7011 7.60938 12.5625 7.60938H15.9375C17.7989 7.60938 19.3125 9.12302 19.3125 10.9844V14.9219C19.3125 15.233 19.061 15.4843 18.7499 15.4843Z" fill="black"/>
<path d="M14.2499 6.48444C12.6992 6.48444 11.4375 5.22273 11.4375 3.67181C11.4375 2.12109 12.6992 0.859375 14.2499 0.859375C15.8007 0.859375 17.0624 2.12109 17.0624 3.67181C17.0624 5.22273 15.8007 6.48444 14.2499 6.48444ZM14.2499 1.98431C13.3195 1.98431 12.5624 2.74154 12.5624 3.67181C12.5624 4.60228 13.3195 5.35931 14.2499 5.35931C15.1804 5.35931 15.9374 4.60228 15.9374 3.67181C15.9374 2.74154 15.1804 1.98431 14.2499 1.98431Z" fill="black"/>
<path d="M13.6875 9.85938H14.8126V10.9843H13.6875V9.85938Z" fill="black"/>
</g>
<defs>
<clipPath id="clip0_15624_25855">
<rect width="27" height="27" fill="black" transform="translate(0.75 0.28125)"/>
</clipPath>
</defs>
</svg>
