<svg width="20" height="21" viewBox="0 0 20 21" fill="none" xmlns="http://www.w3.org/2000/svg">
<path fill-rule="evenodd" clip-rule="evenodd" d="M14.6889 2.57897C13.8179 2.29389 12.6316 2.28129 10 2.28129C8.5885 2.28129 7.57994 2.28183 6.78514 2.33606C5.99931 2.38967 5.49574 2.49241 5.08658 2.66189C3.86144 3.16936 2.88807 4.14273 2.3806 5.36787C2.21112 5.77703 2.10839 6.2806 2.05477 7.06642C2.00054 7.86123 2 8.86979 2 10.2813C2 11.6928 2.00054 12.7014 2.05477 13.4962C2.10839 14.282 2.21112 14.7856 2.3806 15.1947C2.88807 16.4199 3.86144 17.3932 5.08658 17.9007C5.49574 18.0702 5.99931 18.1729 6.78514 18.2265C7.57994 18.2808 8.5885 18.2813 10 18.2813C11.4115 18.2813 12.4201 18.2808 13.2149 18.2265C14.0007 18.1729 14.5043 18.0702 14.9134 17.9007C16.1386 17.3932 17.1119 16.4199 17.6194 15.1947C17.7889 14.7856 17.8916 14.282 17.9452 13.4962C17.9995 12.7014 18 11.6928 18 10.2813C18 9.51549 18 8.86509 17.9908 8.29739C17.9819 7.74518 18.4224 7.29031 18.9746 7.28142C19.5268 7.27252 19.9817 7.71297 19.9906 8.26518C20 8.85069 20 9.51659 20 10.2749V10.3181C20 11.6848 20 12.7614 19.9406 13.6323C19.88 14.52 19.7544 15.2666 19.4672 15.9601C18.7567 17.6753 17.394 19.038 15.6788 19.7485C14.9853 20.0357 14.2387 20.1613 13.351 20.2219C12.4801 20.2813 11.4035 20.2813 10.0369 20.2813H9.9631C8.5965 20.2813 7.51986 20.2813 6.649 20.2219C5.76134 20.1613 5.01469 20.0357 4.32122 19.7485C2.60602 19.038 1.2433 17.6753 0.53284 15.9601C0.2456 15.2666 0.11997 14.52 0.0594101 13.6323C-9.90555e-06 12.7614 0 11.6848 0 10.3181V10.2445C0 8.87779 -9.90555e-06 7.80114 0.0594101 6.93028C0.11997 6.04263 0.2456 5.29597 0.53284 4.6025C1.2433 2.88731 2.60602 1.52459 4.32122 0.814131C5.01469 0.526881 5.76134 0.401261 6.64899 0.340701C7.51986 0.281281 8.5965 0.281281 9.9632 0.281291H10C10.0724 0.281291 10.1441 0.281281 10.215 0.281271C12.5646 0.280911 14.0965 0.280681 15.3111 0.678201C15.8359 0.849991 16.1222 1.41476 15.9504 1.93965C15.7786 2.46453 15.2138 2.75077 14.6889 2.57897ZM19.8637 3.27731C20.142 3.75437 19.9809 4.36668 19.5038 4.64496L19.2822 4.77426C15.6873 6.87127 12.799 9.99219 10.9862 13.7384C10.8452 14.0297 10.572 14.2348 10.2529 14.2888C9.9338 14.3428 9.6083 14.2391 9.3793 14.0103L5.36584 10.0011C4.97511 9.61079 4.97477 8.97769 5.36509 8.58689C5.7554 8.19618 6.38857 8.19584 6.7793 8.58619L9.8298 11.6335C11.8253 8.07741 14.7377 5.10976 18.2744 3.0467L18.4961 2.91741C18.9731 2.63913 19.5854 2.80026 19.8637 3.27731Z" fill="white"/>
</svg>
