<svg width="51" height="51" viewBox="0 0 51 51" fill="none" xmlns="http://www.w3.org/2000/svg">
<g clip-path="url(#clip0_12852_26003)">
<path d="M30.3391 32.4496C30.9579 32.4496 31.5367 32.2056 31.9689 31.7627L35.8078 27.8267C36.684 26.9283 36.6659 25.4845 35.7673 24.6083C34.8688 23.7322 33.4247 23.7504 32.5486 24.6487L30.2965 26.9575L29.902 26.5739C29.0022 25.6993 27.5582 25.7193 26.6831 26.619C25.8083 27.5187 25.8285 28.9625 26.7284 29.8374L28.7524 31.8053C29.1796 32.2208 29.7432 32.4496 30.3391 32.4496ZM27.7357 27.6422C28.0466 27.3225 28.5596 27.3159 28.8788 27.6263L29.7987 28.5208C30.0889 28.8031 30.553 28.7967 30.8358 28.507L33.5994 25.6736C33.9108 25.3544 34.4236 25.3482 34.7425 25.6591C35.0617 25.9704 35.068 26.4831 34.757 26.8021L30.918 30.7379C30.6213 31.0552 30.0809 31.062 29.7757 30.7532L27.7517 28.7852C27.4323 28.4745 27.4249 27.9617 27.7357 27.6422Z" fill="black"/>
<path d="M24.6657 32.9491C24.4215 32.6255 23.9615 32.5611 23.6376 32.8052C23.314 33.0494 23.2497 33.5095 23.4938 33.833C23.7611 34.1872 24.0568 34.5269 24.3724 34.8425C26.177 36.6469 28.5763 37.6406 31.1284 37.6406C33.6804 37.6406 36.0796 36.6469 37.8842 34.8425C39.6889 33.0382 40.6827 30.6392 40.6827 28.0875C40.6827 25.5358 39.6888 23.1369 37.8842 21.3326C34.1589 17.6078 28.0977 17.6079 24.3724 21.3326C21.8327 23.8719 20.9339 27.5763 22.027 31.0001C22.1502 31.3863 22.5635 31.5992 22.9494 31.4761C23.3355 31.3529 23.5487 30.9399 23.4253 30.5538C22.5 27.6556 23.2607 24.5199 25.4105 22.3704C28.5632 19.218 33.6935 19.218 36.8462 22.3704C38.3736 23.8976 39.2148 25.928 39.2148 28.0876C39.2148 30.2473 38.3736 32.2777 36.8462 33.8048C35.319 35.3319 33.2883 36.173 31.1284 36.173C28.9685 36.173 26.9377 35.332 25.4104 33.8048C25.1426 33.5369 24.892 33.2491 24.6657 32.9491Z" fill="black"/>
<path d="M49.4454 41.4952L44.815 36.8654C44.5283 36.5789 44.0637 36.5788 43.777 36.8654L43.7486 36.8937L41.9667 35.1121C43.1646 33.2654 43.8782 31.1317 44.0187 28.9049C44.0441 28.5004 43.7368 28.1519 43.3323 28.1263C42.9281 28.1017 42.5793 28.4081 42.5536 28.8125C42.3783 31.5927 41.1956 34.2099 39.2233 36.1818C36.9944 38.4105 34.0674 39.5262 31.1395 39.529C31.1357 39.5289 31.1321 39.5284 31.1283 39.5284H31.07C28.1579 39.5138 25.2503 38.3985 23.0333 36.1818C20.871 34.0199 19.6802 31.1454 19.6802 28.0879C19.6802 25.0304 20.871 22.1559 23.0333 19.9939C27.4969 15.5309 34.7598 15.5309 39.2233 19.9939C40.8858 21.6562 41.9829 23.753 42.3961 26.0578C42.4677 26.4567 42.8493 26.7218 43.248 26.6507C43.6471 26.5792 43.9125 26.1979 43.841 25.7988C43.3746 23.1976 42.1368 20.8313 40.2613 18.9561C39.332 18.0269 38.2949 17.2697 37.1901 16.6835V10.7688C37.1895 10.5757 37.1115 10.3866 36.9752 10.2499L27.8805 1.15635C27.7437 1.02021 27.5547 0.941895 27.3613 0.941406H2.65703C1.44297 0.941406 0.455176 1.929 0.455176 3.14297V9.31123C0.455176 9.7165 0.783691 10.0451 1.18916 10.0451C1.59453 10.0451 1.92314 9.7166 1.92314 9.31123V3.14297C1.92314 2.73828 2.25234 2.40908 2.65713 2.40908H26.6276V9.30117C26.6276 10.5151 27.6154 11.5027 28.8295 11.5027H35.7225V16.0188C34.2904 15.4763 32.7807 15.1976 31.2685 15.1812C31.2612 15.1803 31.2542 15.1788 31.2467 15.1788H14.86C14.4546 15.1788 14.126 15.5074 14.126 15.9127C14.126 16.318 14.4546 16.6466 14.86 16.6466H25.1359C24.089 17.194 23.1021 17.8948 22.2083 18.7486H14.86C14.4546 18.7486 14.126 19.0772 14.126 19.4825C14.126 19.8878 14.4546 20.2164 14.86 20.2164H20.8873C19.6893 21.7683 18.8705 23.5556 18.4786 25.4635H14.8601C14.4547 25.4635 14.1261 25.7921 14.1261 26.1974C14.1261 26.6026 14.4547 26.9312 14.8601 26.9312H18.2643C18.2305 27.3138 18.2126 27.6995 18.2126 28.0881C18.2126 28.4068 18.2242 28.7238 18.247 29.0386H14.8602C14.4548 29.0386 14.1262 29.3672 14.1262 29.7725C14.1262 30.1777 14.4548 30.5063 14.8602 30.5063H18.4383C18.8126 32.4928 19.6472 34.3541 20.8896 35.9624H14.8602C14.4548 35.9624 14.1262 36.2909 14.1262 36.6963C14.1262 37.1017 14.4548 37.4302 14.8602 37.4302H22.2112C23.1037 38.2824 24.0891 38.982 25.1342 39.5288H14.8598C14.4544 39.5288 14.1258 39.8574 14.1258 40.2627C14.1258 40.668 14.4544 40.9966 14.8598 40.9966H31.1283C32.6871 40.9964 34.246 40.7164 35.7223 40.1571V48.7402C35.7223 49.1448 35.3931 49.4741 34.9883 49.4741H2.65703C2.25234 49.4741 1.92305 49.1449 1.92305 48.7402V12.2471C1.92305 11.8418 1.59443 11.5132 1.18906 11.5132C0.783691 11.5132 0.455078 11.8417 0.455078 12.2471V48.7402C0.455176 49.9538 1.44297 50.9414 2.65703 50.9414H34.9884C36.2024 50.9414 37.1902 49.9538 37.1902 48.7398V39.4921C37.5178 39.3183 37.8393 39.1292 38.1538 38.9253L39.9354 40.7065C39.6271 40.9757 39.6105 41.4886 39.9069 41.7728L44.5374 46.4026C45.8291 47.7488 48.1537 47.7487 49.4453 46.4026C50.7918 45.111 50.7917 42.7867 49.4454 41.4952ZM28.8294 10.0351C28.4247 10.0351 28.0954 9.70586 28.0954 9.30117V3.44697L34.6844 10.0351H28.8294ZM39.3511 38.0467C39.6643 37.7878 39.9684 37.5126 40.2613 37.2197C40.5525 36.9285 40.8281 36.6245 41.0883 36.3096L42.7105 37.9315L40.9732 39.6686L39.3511 38.0467ZM48.4074 45.3647C47.6621 46.1416 46.3208 46.1414 45.5754 45.3647L41.4639 41.2538L44.296 38.4221L48.4075 42.533C49.1843 43.2784 49.1844 44.6194 48.4074 45.3647Z" fill="black"/>
<path d="M7.11582 20.9427H10.3268C11.232 20.9427 11.9686 20.2063 11.9686 19.3013V16.0907C11.9686 15.1855 11.2321 14.4492 10.3268 14.4492H7.11582C6.21064 14.4492 5.47412 15.1855 5.47412 16.0907V19.3013C5.47412 20.2063 6.21064 20.9427 7.11582 20.9427ZM6.94209 16.0907C6.94209 15.9949 7.02012 15.917 7.11582 15.917H10.3268C10.4227 15.917 10.5006 15.9949 10.5006 16.0907V19.3013C10.5006 19.3971 10.4226 19.475 10.3268 19.475H7.11582C7.02002 19.475 6.94209 19.3971 6.94209 19.3013V16.0907Z" fill="black"/>
<path d="M5.47412 29.5902C5.47412 30.4953 6.21055 31.2316 7.11582 31.2316H10.3268C11.232 31.2316 11.9686 30.4953 11.9686 29.5902V26.3797C11.9686 25.4746 11.2321 24.7383 10.3268 24.7383H7.11582C6.21064 24.7383 5.47412 25.4746 5.47412 26.3797V29.5902ZM6.94209 26.3797C6.94209 26.2839 7.02012 26.206 7.11582 26.206H10.3268C10.4227 26.206 10.5006 26.2839 10.5006 26.3797V29.5902C10.5006 29.686 10.4226 29.764 10.3268 29.764H7.11582C7.02002 29.764 6.94209 29.686 6.94209 29.5902V26.3797Z" fill="black"/>
<path d="M5.47412 40.0884C5.47412 40.9935 6.21055 41.7298 7.11582 41.7298H10.3268C11.232 41.7298 11.9686 40.9935 11.9686 40.0884V36.8778C11.9686 35.9727 11.2321 35.2363 10.3268 35.2363H7.11582C6.21064 35.2363 5.47412 35.9727 5.47412 36.8778V40.0884ZM6.94209 36.8778C6.94209 36.782 7.02012 36.7041 7.11582 36.7041H10.3268C10.4227 36.7041 10.5006 36.782 10.5006 36.8778V40.0884C10.5006 40.1842 10.4226 40.2621 10.3268 40.2621H7.11582C7.02002 40.2621 6.94209 40.1842 6.94209 40.0884V36.8778Z" fill="black"/>
</g>
<defs>
<clipPath id="clip0_12852_26003">
<rect width="50" height="50" fill="white" transform="translate(0.455078 0.941406)"/>
</clipPath>
</defs>
</svg>
