<svg width="26" height="26" viewBox="0 0 26 26" fill="none" xmlns="http://www.w3.org/2000/svg">
<path d="M12.9243 25.8575C9.45207 25.8575 8.99664 25.8429 7.62304 25.7809C6.3806 25.7227 5.41872 25.5405 4.50055 25.1834C3.60061 24.8336 2.90105 24.3782 2.22336 23.7005C1.54567 23.0228 1.09023 22.3196 0.740451 21.4233C0.383388 20.5052 0.197569 19.5433 0.142917 18.3008C0.0809772 16.9309 0.0664062 16.4754 0.0664062 12.9995C0.0664062 9.52363 0.0809772 9.07183 0.142917 7.69823C0.201213 6.4558 0.383388 5.49391 0.740451 4.57575C1.09023 3.6758 1.54567 2.97261 2.22336 2.29856C2.90105 1.62087 3.60425 1.16543 4.50055 0.815651C5.41872 0.458587 6.3806 0.276412 7.62304 0.218116C8.98935 0.156177 9.44479 0.141602 12.9243 0.141602C16.4039 0.141602 16.8557 0.156177 18.2256 0.218116C19.4681 0.276412 20.43 0.458587 21.3481 0.815651C22.2481 1.16543 22.9513 1.62087 23.6253 2.29856C24.303 2.97625 24.7584 3.6758 25.1082 4.57575C25.4653 5.49391 25.6511 6.4558 25.7057 7.69823C25.7677 9.06819 25.7823 9.52727 25.7823 12.9995C25.7823 16.4718 25.7677 16.9272 25.7057 18.3008C25.6475 19.5396 25.4653 20.5052 25.1082 21.4233C24.7584 22.3233 24.303 23.0228 23.6253 23.7005C22.9476 24.3782 22.2481 24.8336 21.3481 25.1834C20.43 25.5405 19.4681 25.7227 18.2256 25.7809C16.8557 25.8429 16.4002 25.8575 12.9243 25.8575ZM12.9243 2.46616C9.48851 2.46616 9.08408 2.48073 7.72869 2.54267C6.47533 2.60097 5.794 2.80865 5.3422 2.98354C4.74467 3.21672 4.31473 3.49363 3.86658 3.94542C3.41843 4.39357 3.13788 4.82351 2.90469 5.42104C2.72981 5.87284 2.51848 6.55417 2.46383 7.80754C2.40189 9.15928 2.38732 9.56735 2.38732 13.0032C2.38732 16.439 2.40189 16.8434 2.46383 18.1988C2.52212 19.4522 2.72981 20.1299 2.90469 20.5853C3.13788 21.1865 3.41479 21.6128 3.86658 22.0609C4.31473 22.5091 4.74467 22.7896 5.3422 23.0228C5.794 23.1977 6.47533 23.409 7.72869 23.4637C9.08043 23.5256 9.48851 23.5402 12.9243 23.5402C16.3602 23.5402 16.7646 23.5256 18.12 23.4637C19.3733 23.4054 20.0547 23.1977 20.5065 23.0228C21.104 22.7896 21.5339 22.5127 21.9821 22.0609C22.4302 21.6128 22.7108 21.1828 22.944 20.5853C23.1189 20.1335 23.3302 19.4522 23.3848 18.1988C23.4468 16.8434 23.4614 16.4354 23.4614 13.0032C23.4614 9.57099 23.4468 9.16657 23.3848 7.80754C23.3265 6.55417 23.1189 5.87284 22.944 5.42104C22.7108 4.81986 22.4339 4.39357 21.9821 3.94542C21.5339 3.49727 21.104 3.21672 20.5065 2.98354C20.0547 2.80865 19.3733 2.59732 18.12 2.54267C16.7682 2.48073 16.3602 2.46616 12.9243 2.46616Z" fill="#085583"/>
<path d="M12.9232 6.46289C9.31245 6.46289 6.38672 9.38863 6.38672 12.9993C6.38672 16.6101 9.31245 19.5358 12.9232 19.5358C16.5339 19.5358 19.4596 16.6101 19.4596 12.9993C19.4596 9.38863 16.5339 6.46289 12.9232 6.46289ZM12.9232 17.2404C10.5804 17.2404 8.68212 15.3421 8.68212 12.9993C8.68212 10.6566 10.5804 8.7583 12.9232 8.7583C15.2659 8.7583 17.1642 10.6566 17.1642 12.9993C17.1642 15.3421 15.2659 17.2404 12.9232 17.2404Z" fill="#085583"/>
<path d="M21.3305 6.13886C21.3305 6.99144 20.6382 7.68006 19.7893 7.68006C18.9403 7.68006 18.248 6.9878 18.248 6.13886C18.248 5.28992 18.9403 4.59766 19.7893 4.59766C20.6382 4.59766 21.3305 5.28992 21.3305 6.13886Z" fill="#085583"/>
</svg>
