<svg width="24" height="24" viewBox="0 0 24 24" fill="none" xmlns="http://www.w3.org/2000/svg">
<path d="M5.4762 7.93652H0.623047V23.6109H5.4762V7.93652Z" fill="#085583"/>
<path d="M3.0276 5.8855C4.61253 5.8855 5.89504 4.58841 5.89504 2.99255C5.89504 1.3967 4.61253 0.0996094 3.0276 0.0996094C1.44268 0.0996094 0.160156 1.39305 0.160156 2.99255C0.160156 4.59205 1.44268 5.8855 3.0276 5.8855Z" fill="#085583"/>
<path d="M13.2328 15.3841C13.2328 13.1798 14.2457 11.8681 16.1877 11.8681C17.973 11.8681 18.8293 13.1288 18.8293 15.3841V23.6111H23.6569V13.6862C23.6569 9.48891 21.2777 7.45947 17.9548 7.45947C14.6319 7.45947 13.2328 10.05 13.2328 10.05V7.94042H8.58008V23.6148H13.2328V15.3877V15.3841Z" fill="#085583"/>
</svg>
