<svg width="27" height="27" viewBox="0 0 27 27" fill="none" xmlns="http://www.w3.org/2000/svg">
<path fill-rule="evenodd" clip-rule="evenodd" d="M26.6709 13.067C26.4997 6.29376 20.9215 0.854004 14.0498 0.854004C7.17819 0.854004 1.73115 6.16623 1.43602 12.8338C1.42874 13.016 1.4251 13.2018 1.4251 13.384C1.4251 15.7559 2.08821 17.9639 3.23227 19.8549L0.955078 26.5772L7.94697 24.3546C9.75414 25.3493 11.8346 25.914 14.0462 25.914C21.0199 25.914 26.6709 20.303 26.6709 13.384C26.6709 13.2784 26.6709 13.1727 26.6637 13.0634L26.6709 13.067ZM14.0498 23.921C11.8929 23.921 9.88897 23.2834 8.20931 22.1758L4.13223 23.4765L5.45482 19.5634C4.18324 17.8255 3.43268 15.6904 3.43268 13.3877C3.43268 13.0452 3.45088 12.7027 3.48732 12.3638C4.00834 7.03339 8.54814 2.85429 14.0498 2.85429C19.5515 2.85429 24.2043 7.13905 24.6306 12.5642C24.6525 12.8375 24.667 13.1071 24.667 13.3877C24.667 19.1991 19.9013 23.921 14.0498 23.921Z" fill="#085583"/>
<path fill-rule="evenodd" clip-rule="evenodd" d="M19.8362 15.9161C19.5229 15.763 18.0036 15.0161 17.7194 14.9178C17.4352 14.8121 17.2275 14.7647 17.0235 15.0708C16.8158 15.3768 16.2182 16.0691 16.0434 16.2695C15.8612 16.4772 15.6826 16.499 15.3693 16.346C15.0632 16.193 14.0613 15.8724 12.8808 14.8194C11.9663 14.0105 11.3396 13.0049 11.1611 12.6989C10.9825 12.3928 11.1428 12.2252 11.2959 12.0722C11.438 11.9301 11.6019 11.7115 11.7622 11.5329C11.8023 11.4783 11.8388 11.4309 11.8752 11.3836C11.9444 11.2706 11.9991 11.1649 12.0719 11.0156C12.1776 10.8079 12.1266 10.633 12.0501 10.4763C11.9736 10.3233 11.3542 8.81124 11.0918 8.19549C10.8368 7.57974 10.5781 7.6854 10.3959 7.6854C10.2137 7.6854 10.0134 7.65625 9.80568 7.65625C9.598 7.65625 9.26279 7.73276 8.97859 8.03882C8.6944 8.34487 7.89648 9.09179 7.89648 10.6038C7.89648 10.9573 7.96207 11.3143 8.0568 11.6495C8.37014 12.7317 9.04418 13.6243 9.16077 13.7773C9.3138 13.9777 11.2995 17.1804 14.4439 18.4155C17.5955 19.6397 17.5955 19.2317 18.1602 19.177C18.7286 19.1297 19.9929 18.4374 20.248 17.716C20.5066 17.0018 20.5066 16.3861 20.4301 16.2549C20.3536 16.131 20.1459 16.0545 19.8399 15.9015L19.8362 15.9161Z" fill="#085583"/>
</svg>
