<svg width="233" height="233" viewBox="0 0 233 233" fill="none" xmlns="http://www.w3.org/2000/svg">
<circle cx="116.5" cy="116.5" r="116" fill="#E7E7E7"/>
<circle cx="116.5" cy="116.5" r="84" fill="#F9F9F9"/>
<g clip-path="url(#clip0_7419_74303)">
<path d="M164.394 95.3889L132.649 63.6444C131.529 62.5252 129.862 62.1929 128.4 62.7987C126.938 63.4044 125.993 64.8183 125.993 66.4004V84.089H80.3477C78.1975 84.089 76.4488 85.8376 76.4488 87.9879V108.303C76.4488 110.453 78.1975 112.202 80.3477 112.202H86.7152L67.8192 131.098C66.2992 132.618 66.2992 135.091 67.8192 136.611L77.2023 145.994C77.5085 146.3 77.9101 146.453 78.3109 146.453C78.7118 146.453 79.1134 146.3 79.4195 145.994C80.0318 145.382 80.0318 144.39 79.4195 143.778L70.0364 134.395C69.7385 134.097 69.7385 133.612 70.0364 133.314L101.782 101.569C102.107 101.244 102.472 101.345 102.614 101.404C102.756 101.463 103.085 101.649 103.085 102.11V121.365C103.085 122.231 103.787 122.932 104.653 122.932H113.823C114.689 122.932 115.39 122.231 115.39 121.365C115.39 120.5 114.689 119.798 113.823 119.798H106.22V112.202H125.993V119.798H121.038C120.172 119.798 119.47 120.5 119.47 121.365C119.47 122.231 120.172 122.932 121.038 122.932H125.993V129.89C125.993 131.472 126.938 132.886 128.4 133.492C128.885 133.694 129.393 133.791 129.896 133.791C130.908 133.791 131.901 133.395 132.649 132.647L142.363 122.932H151.865C152.287 122.932 152.63 123.275 152.63 123.697V144.012C152.63 144.433 152.287 144.776 151.865 144.776H104.653C103.787 144.776 103.085 145.477 103.085 146.344V165.599C103.085 166.06 102.756 166.246 102.614 166.305C102.472 166.364 102.107 166.465 101.782 166.139L84.5217 148.879C83.9086 148.267 82.9168 148.267 82.3045 148.879C81.6922 149.491 81.6922 150.484 82.3045 151.096L99.5645 168.356C100.312 169.103 101.305 169.5 102.318 169.5C102.821 169.5 103.329 169.402 103.814 169.201C105.276 168.596 106.22 167.182 106.22 165.599V147.911H151.865C154.016 147.911 155.765 146.162 155.765 144.012V123.697C155.765 121.547 154.016 119.798 151.865 119.798H145.499L150.877 114.42C151.488 113.807 151.488 112.815 150.877 112.203C150.265 111.591 149.272 111.591 148.66 112.203L130.432 130.431C130.107 130.756 129.742 130.655 129.6 130.596C129.458 130.538 129.129 130.351 129.129 129.89V110.635C129.129 109.769 128.426 109.068 127.561 109.068H106.22V102.11C106.22 100.527 105.276 99.1139 103.814 98.5081C102.352 97.9016 100.684 98.2339 99.5645 99.3531L89.85 109.068H80.3477C79.9265 109.068 79.5836 108.725 79.5836 108.303V87.9879C79.5836 87.5666 79.9265 87.2238 80.3477 87.2238H127.56C128.426 87.2238 129.128 86.5225 129.128 85.6564V66.4004C129.128 65.94 129.458 65.7538 129.6 65.6951C129.741 65.6355 130.107 65.5342 130.432 65.8608L162.177 97.6053C162.475 97.9032 162.475 98.3881 162.177 98.6853L153.761 107.101C153.149 107.713 153.149 108.706 153.761 109.318C154.373 109.93 155.365 109.93 155.978 109.318L164.394 100.902C165.914 99.3825 165.914 96.9089 164.394 95.3889Z" fill="#463EA7"/>
</g>
<defs>
<clipPath id="clip0_7419_74303">
<rect width="107" height="107" fill="white" transform="translate(62.5 62.5)"/>
</clipPath>
</defs>
</svg>
